<?xml version="1.0" encoding="UTF-8"?><svg xmlns="http://www.w3.org/2000/svg" xmlns:xlink="http://www.w3.org/1999/xlink" fill-opacity="1" color-rendering="auto" color-interpolation="auto" text-rendering="auto" stroke="black" stroke-linecap="square" width="70" stroke-miterlimit="10" shape-rendering="auto" stroke-opacity="1" fill="black" stroke-dasharray="none" font-weight="normal" stroke-width="1" height="85" font-family="'Dialog'" font-style="normal" stroke-linejoin="miter" font-size="12px" stroke-dashoffset="0" image-rendering="auto">
  <!--Generated by ySVG 2.5-->
  <defs id="genericDefs"/>
  <g>
    <defs id="defs1">
      <clipPath clipPathUnits="userSpaceOnUse" id="clipPath1">
        <path d="M0 0 L70 0 L70 85 L0 85 L0 0 Z"/>
      </clipPath>
      <clipPath clipPathUnits="userSpaceOnUse" id="clipPath2">
        <path d="M100 68 L170 68 L170 153 L100 153 L100 68 Z"/>
      </clipPath>
    </defs>
    <g fill="white" text-rendering="geometricPrecision" shape-rendering="geometricPrecision" transform="translate(-100,-68)" stroke="white">
      <rect x="100" width="70" height="85" y="68" clip-path="url(#clipPath2)" stroke="none"/>
    </g>
    <g fill="rgb(255,204,0)" text-rendering="geometricPrecision" shape-rendering="geometricPrecision" transform="matrix(1,0,0,1,-100,-68)" stroke="rgb(255,204,0)">
      <rect x="120" y="108" clip-path="url(#clipPath2)" width="30" rx="4" ry="4" height="30" stroke="none"/>
    </g>
    <g text-rendering="geometricPrecision" stroke-miterlimit="1.45" shape-rendering="geometricPrecision" font-family="sans-serif" transform="matrix(1,0,0,1,-100,-68)" stroke-linecap="butt">
      <text x="125.2939" xml:space="preserve" y="127.5352" clip-path="url(#clipPath2)" stroke="none">bot</text>
      <rect x="120" y="108" clip-path="url(#clipPath2)" fill="none" width="30" rx="4" ry="4" height="30"/>
      <path fill="none" d="M150.0007 116.1015 L151.5843 114.1822 L153.4283 110.7849 L154.5937 107.0307 L155 103 L154.5937 98.9693 L153.4283 95.2151 L151.5843 91.8178 L149.1421 88.8579 L146.1822 86.4157 L142.7849 84.5717 L139.0307 83.4063 L135 83 L130.9693 83.4063 L127.2151 84.5717 L123.8178 86.4157 L120.8579 88.8579 L118.4157 91.8178 L116.5717 95.2151 L115.4063 98.9693 L115 103 L115.4063 107.0307 L116.0606 109.1383 L116.1148 109.2224" clip-path="url(#clipPath2)"/>
      <path d="M120.0484 116.1885 L118.5018 103.2808 L115.6231 108.3516 L109.7941 108.1978 Z" clip-path="url(#clipPath2)" stroke="none"/>
    </g>
  </g>
</svg>
