<?xml version="1.0" standalone="no"?>
<!DOCTYPE svg PUBLIC "-//W3C//DTD SVG 20010904//EN"
 "http://www.w3.org/TR/2001/REC-SVG-20010904/DTD/svg10.dtd">
<svg version="1.0" xmlns="http://www.w3.org/2000/svg"
 width="512.000000pt" height="512.000000pt" viewBox="0 0 512.000000 512.000000"
 preserveAspectRatio="xMidYMid meet">
<metadata>
Created by potrace 1.11, written by Peter Selinger 2001-2013
</metadata>
<g transform="translate(0.000000,512.000000) scale(0.100000,-0.100000)"
fill="#000000" stroke="none">
<path d="M585 5108 c-28 -11 -100 -73 -100 -88 0 -3 -8 -14 -17 -24 -17 -16
-18 -146 -18 -2430 0 -2435 0 -2466 33 -2466 4 0 7 -6 7 -13 0 -8 9 -22 20
-32 11 -10 20 -15 20 -11 0 4 9 -2 21 -12 23 -22 62 -32 122 -32 96 0 210 99
198 173 0 4 2 7 7 7 4 0 7 485 7 1078 l0 1077 1763 0 c969 0 1762 3 1762 8 0
4 30 7 68 7 47 1 78 7 102 20 19 11 32 19 28 20 -3 0 6 13 22 28 38 39 54 117
39 191 -10 48 -19 63 -66 108 -37 36 -67 55 -92 59 -20 4 -837 7 -1816 7 -979
-1 -1787 1 -1795 3 -14 3 -15 125 -15 1076 0 705 -3 1083 -10 1103 -15 44 -47
95 -57 89 -4 -3 -8 -1 -8 3 0 11 -60 47 -60 36 0 -4 -4 -3 -8 3 -10 16 -122
25 -157 12z"/>
<path d="M2588 2074 c-4 -3 -28 -6 -54 -6 -27 0 -53 -3 -59 -6 -5 -4 -23 -7
-40 -8 -16 -1 -31 -3 -32 -4 -2 -1 -11 -3 -20 -4 -10 -1 -24 -5 -30 -9 -7 -5
-17 -6 -22 -2 -5 3 -12 1 -16 -4 -3 -5 -14 -8 -25 -6 -11 2 -26 -2 -33 -9 -7
-7 -20 -12 -30 -10 -9 1 -19 -2 -23 -7 -3 -5 -14 -9 -24 -9 -10 0 -24 -8 -29
-17 -8 -14 -11 -15 -11 -3 -1 12 -2 12 -10 -2 -6 -9 -18 -15 -27 -14 -10 2
-24 -3 -31 -11 -8 -7 -18 -11 -23 -8 -5 4 -9 1 -9 -5 0 -6 -4 -9 -9 -6 -5 4
-11 2 -13 -3 -1 -5 -24 -22 -50 -38 -26 -17 -45 -33 -42 -35 3 -3 -7 -9 -21
-12 -14 -4 -23 -11 -20 -16 6 -10 -9 -15 -30 -10 -5 1 -7 -1 -3 -5 4 -4 -19
-34 -52 -66 -32 -33 -56 -59 -53 -59 3 0 -6 -9 -21 -21 -14 -11 -26 -26 -26
-32 0 -7 -11 -29 -25 -49 -13 -20 -26 -42 -27 -49 -2 -8 -9 -20 -16 -27 -7 -8
-16 -27 -19 -43 -3 -16 -9 -29 -13 -29 -4 0 -7 -6 -7 -12 1 -23 -15 -78 -23
-78 -4 0 -6 -11 -5 -25 2 -14 0 -25 -4 -25 -7 0 -10 -20 -14 -85 -1 -19 -5
-35 -9 -35 -12 0 -9 -205 3 -280 5 -35 15 -70 21 -77 5 -7 8 -18 5 -25 -2 -7
2 -28 9 -47 8 -18 12 -36 9 -41 -2 -4 2 -16 10 -26 8 -10 15 -29 15 -41 0 -13
5 -23 10 -23 6 0 10 -5 10 -11 0 -6 10 -25 22 -42 12 -17 17 -27 10 -23 -8 5
-10 2 -6 -8 3 -9 10 -16 14 -16 5 0 12 -10 16 -22 8 -27 29 -49 38 -41 3 4 6
-1 6 -11 0 -9 11 -29 25 -44 84 -88 109 -111 119 -105 6 3 8 3 4 -2 -8 -9 21
-37 65 -63 15 -9 27 -20 27 -25 0 -4 5 -5 10 -2 6 3 10 2 10 -3 0 -9 42 -29
64 -30 5 0 13 -7 18 -16 5 -8 15 -13 22 -10 8 3 17 0 21 -5 3 -6 11 -9 16 -5
5 3 8 0 7 -8 -2 -8 4 -12 15 -10 9 2 17 -2 17 -9 0 -6 7 -9 15 -5 8 3 22 -3
31 -12 10 -9 19 -16 21 -14 2 1 6 1 11 1 4 -1 15 -1 25 0 9 1 17 -2 17 -6 0
-8 19 -12 73 -14 9 0 17 -5 17 -10 0 -5 12 -9 28 -8 15 1 54 -3 87 -9 33 -6
83 -11 110 -12 28 -1 80 -4 118 -7 39 -3 67 -1 67 5 0 5 17 7 37 5 20 -2 43
-1 52 3 9 3 30 8 46 10 49 6 64 10 71 17 4 4 15 7 25 7 9 0 20 6 22 13 4 8 6
8 6 0 1 -13 81 14 81 28 0 5 7 6 15 3 8 -4 15 -1 15 6 0 6 4 9 9 6 5 -3 12 1
15 10 4 9 9 14 12 11 4 -3 18 5 33 19 15 14 28 19 30 13 2 -7 12 -3 25 9 80
78 106 101 106 95 0 -3 9 5 20 18 11 13 24 29 29 35 5 7 7 15 4 18 -4 3 -2 6
3 6 5 0 18 14 28 30 9 17 21 28 26 25 5 -3 7 4 5 15 -2 11 0 20 5 20 9 0 36
69 32 82 -1 5 3 8 10 8 6 0 8 3 5 7 -4 3 -2 12 5 20 6 7 8 16 5 20 -4 3 -2 12
4 20 6 7 9 22 6 33 -3 11 -1 23 4 26 14 9 10 97 -6 118 -11 14 -15 16 -15 5 0
-12 -2 -12 -10 1 -5 8 -10 11 -10 5 0 -6 -26 -9 -60 -8 -33 0 -60 -2 -61 -5 0
-4 -3 -25 -5 -47 -7 -62 -12 -100 -14 -100 -1 0 -3 -11 -6 -24 -2 -13 -12 -29
-21 -36 -11 -8 -13 -14 -4 -19 8 -5 7 -11 -4 -22 -8 -9 -13 -20 -10 -25 4 -5
-2 -9 -11 -9 -10 0 -14 -3 -11 -7 15 -14 -141 -183 -169 -183 -8 0 -14 -4 -14
-10 0 -5 -11 -12 -25 -16 -14 -3 -25 -10 -25 -16 0 -5 -4 -6 -10 -3 -5 3 -10
3 -10 -2 0 -14 -50 -33 -50 -20 0 7 -4 6 -9 -2 -5 -8 -22 -16 -37 -18 -15 -2
-35 -8 -43 -12 -17 -8 -281 -6 -319 3 -12 2 -27 8 -34 12 -7 5 -8 3 -3 -7 7
-11 5 -11 -10 1 -10 8 -20 14 -22 13 -8 -7 -34 -2 -30 5 3 4 -6 8 -19 9 -45 4
-54 6 -54 14 0 4 -16 10 -35 13 -19 4 -41 14 -50 22 -8 9 -15 12 -15 8 0 -3
-7 -1 -15 6 -8 7 -15 10 -15 6 0 -3 -13 8 -28 24 -16 16 -32 27 -35 23 -4 -3
-7 1 -7 10 0 9 -4 17 -9 17 -6 0 -30 20 -55 45 -26 25 -44 45 -41 45 2 0 -4
15 -15 33 -39 64 -76 153 -84 202 -4 22 -10 56 -13 75 -4 19 -6 59 -6 88 0 28
-3 52 -7 52 -4 0 -6 51 -5 113 0 61 -3 118 -9 125 -7 9 -5 12 4 10 10 -2 14
16 16 72 1 41 5 86 9 100 4 14 8 36 10 50 2 14 4 25 5 25 1 0 3 7 5 15 2 8 9
29 16 45 7 17 13 32 14 35 8 31 18 50 26 50 6 0 7 5 4 10 -3 6 -1 10 6 10 7 0
9 3 6 7 -14 13 116 163 141 163 8 0 10 5 6 12 -5 7 -2 9 9 5 11 -4 18 1 22 14
4 10 10 17 15 14 4 -2 20 5 34 16 15 11 34 22 44 24 9 2 18 4 20 5 1 2 5 3 10
5 4 1 21 8 37 15 17 7 36 12 44 11 7 -1 11 2 8 6 -3 5 3 10 14 10 12 1 17 -3
13 -10 -3 -7 0 -5 8 3 14 17 26 19 143 26 121 7 167 7 205 -1 19 -4 43 -7 53
-7 9 1 17 -4 17 -10 0 -5 7 -7 16 -4 8 3 12 2 9 -4 -3 -5 10 -12 29 -15 19 -4
43 -15 54 -25 11 -10 23 -16 26 -13 3 4 6 1 6 -6 0 -7 3 -10 8 -8 4 3 13 -1
20 -9 7 -8 9 -14 5 -14 -4 0 6 -9 22 -20 17 -11 27 -20 24 -20 -4 0 7 -15 25
-33 43 -45 77 -87 70 -87 -3 0 2 -7 10 -16 9 -8 14 -19 11 -24 -3 -4 1 -10 9
-13 7 -3 19 -26 26 -51 7 -25 18 -46 24 -46 6 0 5 -4 -3 -9 -9 -6 -10 -11 -2
-15 6 -4 11 -16 11 -27 0 -11 4 -18 9 -14 6 3 8 -8 6 -25 -2 -16 0 -32 5 -35
5 -3 7 -12 4 -19 -3 -8 4 -25 15 -38 18 -20 29 -23 85 -22 37 1 72 7 81 14 13
11 15 65 15 391 0 260 -3 379 -11 379 -5 0 -8 4 -5 9 7 10 -17 21 -45 21 -11
0 -32 -11 -46 -24 -15 -14 -30 -23 -35 -20 -4 3 -8 -2 -8 -10 0 -9 -4 -16 -9
-16 -11 0 -52 -33 -93 -74 -15 -15 -28 -24 -28 -20 0 5 -4 3 -8 -4 -10 -14
-52 -25 -52 -13 0 5 -8 12 -17 15 -10 4 -32 15 -49 24 -28 16 -43 28 -78 59
-8 7 -16 10 -19 7 -3 -3 -16 0 -29 7 -12 7 -26 12 -30 11 -4 -1 -20 3 -35 10
-38 15 -54 19 -80 21 -13 0 -23 5 -23 10 0 4 -18 6 -40 4 -22 -2 -43 0 -46 4
-6 10 -207 12 -216 3z"/>
</g>
</svg>
