<?xml version="1.0" standalone="no"?><!DOCTYPE svg PUBLIC "-//W3C//DTD SVG 1.1//EN" "http://www.w3.org/Graphics/SVG/1.1/DTD/svg11.dtd"><svg width="150px" height="150px" role="img" focusable="false" viewBox="0 -1728.1 1185.7 1739.1" xmlns:xlink="http://www.w3.org/1999/xlink" version="1.1" xmlns="http://www.w3.org/2000/svg" style="width:150px;perspective-origin:75px 75px;transform-origin:75px 75px;">
        <defs style="height:auto;overflow-x:visible;overflow-y:visible;width:auto;perspective-origin:0px 0px;transform-origin:0px 0px;">
          <path id="LOGO-TURNSTILE" d="M55 678Q55 679 56 681T58 684T61 688T65 691T70 693T77 694Q88 692 95 679V367H540Q555 359 555 347Q555 334 540 327H95V15Q88 2 77 0Q73 0 70 1T65 3T61 6T59 9T57 13T55 16V678Z" style="height:auto;overflow-x:visible;overflow-y:visible;width:auto;perspective-origin:0px 0px;transform-origin:0px 0px;d:path(&quot;M 55 678 Q 55 679 56 681 T 58 684 T 61 688 T 65 691 T 70 693 T 77 694 Q 88 692 95 679 V 367 H 540 Q 555 359 555 347 Q 555 334 540 327 H 95 V 15 Q 88 2 77 0 Q 73 0 70 1 T 65 3 T 61 6 T 59 9 T 57 13 T 55 16 V 678 Z&quot;);">
          </path>
          <path id="LOGO-C" d="M64 343Q64 502 174 599T468 697Q502 697 533 691T586 674T623 655T647 639T657 632L694 663Q703 670 711 677T723 687T730 692T735 695T740 696T746 697Q759 697 762 692T766 668V627V489V449Q766 428 762 424T742 419H732H720Q699 419 697 436Q690 498 657 545Q611 618 532 632Q522 634 496 634Q356 634 286 553Q232 488 232 343T286 133Q355 52 497 52Q597 52 650 112T704 237Q704 248 709 251T729 254H735Q750 254 755 253T763 248T766 234Q766 136 680 63T469 -11Q285 -11 175 86T64 343Z" style="height:auto;overflow-x:visible;overflow-y:visible;width:auto;perspective-origin:0px 0px;transform-origin:0px 0px;d:path(&quot;M 64 343 Q 64 502 174 599 T 468 697 Q 502 697 533 691 T 586 674 T 623 655 T 647 639 T 657 632 L 694 663 Q 703 670 711 677 T 723 687 T 730 692 T 735 695 T 740 696 T 746 697 Q 759 697 762 692 T 766 668 V 627 V 489 V 449 Q 766 428 762 424 T 742 419 H 732 H 720 Q 699 419 697 436 Q 690 498 657 545 Q 611 618 532 632 Q 522 634 496 634 Q 356 634 286 553 Q 232 488 232 343 T 286 133 Q 355 52 497 52 Q 597 52 650 112 T 704 237 Q 704 248 709 251 T 729 254 H 735 Q 750 254 755 253 T 763 248 T 766 234 Q 766 136 680 63 T 469 -11 Q 285 -11 175 86 T 64 343 Z&quot;);">
          </path>
        </defs>
        <g stroke="currentColor" fill="currentColor" stroke-width="0" transform="matrix(1 0 0 -1 0 0)" style="height:auto;overflow-x:visible;overflow-y:visible;width:auto;perspective-origin:0px 0px;transform:matrix(1, 0, 0, -1, 0, 0);transform-origin:0px 0px;fill:rgb(34, 34, 34);stroke:rgb(34, 34, 34);stroke-width:0px;">
              <g transform="scale(2.49)" style="height:auto;overflow-x:visible;overflow-y:visible;width:auto;perspective-origin:0px 0px;transform:matrix(2.49, 0, 0, 2.49, 0, 0);transform-origin:0px 0px;fill:rgb(34, 34, 34);stroke:rgb(34, 34, 34);stroke-width:0px;">
            <use xlink:href="#LOGO-TURNSTILE" style="height:auto;overflow-x:visible;overflow-y:visible;width:auto;perspective-origin:0px 0px;transform-origin:0px 0px;fill:rgb(34, 34, 34);stroke:rgb(34, 34, 34);stroke-width:0px;"/>
          </g>
          <g transform="translate(1521.4, 0)" style="height:auto;overflow-x:visible;overflow-y:visible;width:auto;perspective-origin:0px 0px;transform:matrix(1, 0, 0, 1, 1521.4, 0);transform-origin:0px 0px;fill:rgb(34, 34, 34);stroke:rgb(34, 34, 34);stroke-width:0px;">
            <g transform="translate(-1166.7, 0)" style="height:auto;overflow-x:visible;overflow-y:visible;width:auto;perspective-origin:0px 0px;transform:matrix(1, 0, 0, 1, -1166.7, 0);transform-origin:0px 0px;fill:rgb(34, 34, 34);stroke:rgb(34, 34, 34);stroke-width:0px;">
              <use xlink:href="#LOGO-C" style="height:auto;overflow-x:visible;overflow-y:visible;width:auto;perspective-origin:0px 0px;transform-origin:0px 0px;fill:rgb(34, 34, 34);stroke:rgb(34, 34, 34);stroke-width:0px;"/>
            </g>
          </g>
        </g></svg>
