<?xml version="1.0" encoding="UTF-8" standalone="no"?>
<svg
   xmlns:dc="http://purl.org/dc/elements/1.1/"
   xmlns:cc="http://creativecommons.org/ns#"
   xmlns:rdf="http://www.w3.org/1999/02/22-rdf-syntax-ns#"
   xmlns:svg="http://www.w3.org/2000/svg"
   xmlns="http://www.w3.org/2000/svg"
   version="1.1"
   id="svg2"
   xml:space="preserve"
   width="305.33334"
   height="305.33334"
   viewBox="0 0 305.33334 305.33334"><metadata
     id="metadata8"><rdf:RDF><cc:Work
         rdf:about=""><dc:format>image/svg+xml</dc:format><dc:type
           rdf:resource="http://purl.org/dc/dcmitype/StillImage" /></cc:Work></rdf:RDF></metadata><defs
     id="defs6" /><g
     id="g10"
     transform="matrix(1.3333333,0,0,-1.3333333,0,305.33333)"><g
       id="g12"
       transform="scale(0.1)"><path
         d="m 1708.52,1148.44 c 0,-313.131 -253.83,-566.96 -566.96,-566.96 -313.08,0 -566.912,253.829 -566.912,566.96 0,313.08 253.832,566.91 566.912,566.91 313.13,0 566.96,-253.83 566.96,-566.91 z"
         style="fill:none;stroke:#000000;stroke-width:8.50394;stroke-linecap:butt;stroke-linejoin:miter;stroke-miterlimit:4;stroke-dasharray:none;stroke-opacity:1"
         id="path14" /><path
         d="M 2275.43,1148.44 C 2275.43,522.23 1767.77,14.5703 1141.56,14.5703 515.352,14.5703 7.73047,522.23 7.73047,1148.44 c 0,626.21 507.62153,1133.83 1133.82953,1133.83 626.21,0 1133.87,-507.62 1133.87,-1133.83 z"
         style="fill:none;stroke:#000000;stroke-width:8.50394;stroke-linecap:butt;stroke-linejoin:miter;stroke-miterlimit:4;stroke-dasharray:none;stroke-opacity:1"
         id="path16" /><g
         id="g18"
         transform="scale(10)"><text
           transform="matrix(1,0,0,-1,85.0332,108.736)"
           style="font-variant:normal;font-size:20px;font-family:f-0;-inkscape-font-specification:f-0-0;writing-mode:lr-tb;fill:#000000;fill-opacity:1;fill-rule:nonzero;stroke:none"
           id="text22"><tspan
             x="0 13.54 27.799999 44.060001"
             y="0"
             id="tspan20">COME</tspan></text></g><path
         d="m 1115.94,2035.86 3.47,-595.47"
         style="fill:none;stroke:#000000;stroke-width:7.49999;stroke-linecap:butt;stroke-linejoin:miter;stroke-miterlimit:4;stroke-dasharray:none;stroke-opacity:1"
         id="path24" /><path
         d="m 1118.98,1515.39 -30.19,29.81 30.62,-104.81 29.38,105.16 z"
         style="fill:#000000;fill-opacity:1;fill-rule:evenodd;stroke:none"
         id="path26" /><path
         d="m 1118.99,1515.39 -30.2,29.81 30.62,-104.81 29.38,105.16 z"
         style="fill:none;stroke:#000000;stroke-width:7.99999;stroke-linecap:butt;stroke-linejoin:miter;stroke-miterlimit:4;stroke-dasharray:none;stroke-opacity:1"
         id="path28" /><path
         d="m 1121.48,243.672 -3.47,595.469"
         style="fill:none;stroke:#000000;stroke-width:7.49999;stroke-linecap:butt;stroke-linejoin:miter;stroke-miterlimit:4;stroke-dasharray:none;stroke-opacity:1"
         id="path30" /><path
         d="m 1118.48,764.141 30.15,-29.801 -30.62,104.801 -29.38,-105.161 z"
         style="fill:#000000;fill-opacity:1;fill-rule:evenodd;stroke:none"
         id="path32" /><path
         d="m 1118.48,764.137 30.15,-29.805 -30.62,104.805 -29.38,-105.157 z"
         style="fill:none;stroke:#000000;stroke-width:7.99999;stroke-linecap:butt;stroke-linejoin:miter;stroke-miterlimit:4;stroke-dasharray:none;stroke-opacity:1"
         id="path34" /><path
         d="m 188.672,1168.52 595.469,3.47"
         style="fill:none;stroke:#000000;stroke-width:7.49999;stroke-linecap:butt;stroke-linejoin:miter;stroke-miterlimit:4;stroke-dasharray:none;stroke-opacity:1"
         id="path36" /><path
         d="m 709.141,1171.52 -29.84,-30.15 104.84,30.62 -105.192,29.38 z"
         style="fill:#000000;fill-opacity:1;fill-rule:evenodd;stroke:none"
         id="path38" /><path
         d="m 709.141,1171.52 -29.844,-30.16 104.844,30.63 -105.196,29.37 z"
         style="fill:none;stroke:#000000;stroke-width:7.99999;stroke-linecap:butt;stroke-linejoin:miter;stroke-miterlimit:4;stroke-dasharray:none;stroke-opacity:1"
         id="path40" /><path
         d="m 2084.73,1174.06 -595.47,-3.47"
         style="fill:none;stroke:#000000;stroke-width:7.49999;stroke-linecap:butt;stroke-linejoin:miter;stroke-miterlimit:4;stroke-dasharray:none;stroke-opacity:1"
         id="path42" /><path
         d="m 1564.26,1171.02 29.84,30.19 -104.84,-30.62 105.19,-29.38 z"
         style="fill:#000000;fill-opacity:1;fill-rule:evenodd;stroke:none"
         id="path44" /><path
         d="m 1564.25,1171.02 29.85,30.19 -104.85,-30.62 105.2,-29.38 z"
         style="fill:none;stroke:#000000;stroke-width:7.99999;stroke-linecap:butt;stroke-linejoin:miter;stroke-miterlimit:4;stroke-dasharray:none;stroke-opacity:1"
         id="path46" /></g></g></svg>
