<?xml version="1.0" encoding="UTF-8" standalone="no"?>
<svg
   xmlns:dc="http://purl.org/dc/elements/1.1/"
   xmlns:cc="http://creativecommons.org/ns#"
   xmlns:rdf="http://www.w3.org/1999/02/22-rdf-syntax-ns#"
   xmlns:svg="http://www.w3.org/2000/svg"
   xmlns="http://www.w3.org/2000/svg"
   version="1.1"
   id="svg2"
   xml:space="preserve"
   width="100"
   height="80"
   viewBox="0 0 100 80"><metadata
     id="metadata8"><rdf:RDF><cc:Work
         rdf:about=""><dc:format>image/svg+xml</dc:format><dc:type
           rdf:resource="http://purl.org/dc/dcmitype/StillImage" /></cc:Work></rdf:RDF></metadata><defs
     id="defs6" /><g
     id="g10"
     transform="matrix(1.3333333,0,0,-1.3333333,0,80)"><g
       id="g12"
       transform="scale(0.1)"><path
         d="M 0,0 H 750 V 600 H 0 Z"
         style="fill:#b9ffb9;fill-opacity:1;fill-rule:nonzero;stroke:none"
         id="path14" /><path
         d="M 0,0 H 750 V 600 H 0 Z"
         style="fill:none;stroke:#000000;stroke-width:8.50394;stroke-linecap:butt;stroke-linejoin:miter;stroke-miterlimit:4;stroke-dasharray:none;stroke-opacity:1"
         id="path16" /><path
         d="M 223.48,512.578 C 106.68,511.762 12.4219,416.84 12.4219,300 12.4219,182.578 107.578,87.4219 225,87.4219 c 56.211,0 110.16,22.2691 150,61.9181 -40.078,39.879 -62.578,94.101 -62.578,150.66 0,56.559 22.5,110.781 62.578,150.66 -39.84,39.649 -93.789,61.918 -150,61.918 -0.512,0 -1.02,0 -1.52,0 z"
         style="fill:#ffffff;fill-opacity:1;fill-rule:evenodd;stroke:none"
         id="path18" /><path
         d="M 223.48,512.578 C 106.68,511.762 12.4219,416.84 12.4219,300 12.4219,182.578 107.578,87.4219 225,87.4219 c 56.211,0 110.16,22.2691 150,61.9181 -40.078,39.879 -62.578,94.101 -62.578,150.66 0,56.559 22.5,110.781 62.578,150.66 -39.84,39.649 -93.789,61.918 -150,61.918 -0.512,0 -1.02,0 -1.52,0 z"
         style="fill:none;stroke:#000000;stroke-width:8.50395;stroke-linecap:butt;stroke-linejoin:miter;stroke-miterlimit:4;stroke-dasharray:none;stroke-opacity:1"
         id="path20" /><path
         d="M 525.16,512.578 C 468.828,512.539 414.84,490.121 375.039,450.23 414.879,410.391 437.301,356.371 437.34,300 438.051,242.66 415.59,187.461 375.039,146.949 415.309,108.09 469.262,86.7188 525.16,87.4219 c 117.34,0 212.418,95.1991 212.418,212.5781 0,117.422 -95.078,212.578 -212.418,212.578 z"
         style="fill:#ffffff;fill-opacity:1;fill-rule:nonzero;stroke:none"
         id="path22" /><path
         d="M 525.16,512.578 C 468.828,512.539 414.84,490.121 375.039,450.23 414.879,410.391 437.301,356.371 437.34,300 438.051,242.66 415.59,187.461 375.039,146.949 415.309,108.09 469.262,86.7188 525.16,87.4219 c 117.34,0 212.418,95.1991 212.418,212.5781 0,117.422 -95.078,212.578 -212.418,212.578 z"
         style="fill:none;stroke:#000000;stroke-width:8.50045;stroke-linecap:butt;stroke-linejoin:miter;stroke-miterlimit:4;stroke-dasharray:none;stroke-opacity:1"
         id="path24" /><path
         d="M 375,450.66 C 334.922,410.781 312.422,356.559 312.422,300 c 0,-56.559 22.5,-110.781 62.578,-150.66 40.078,39.879 62.578,94.101 62.578,150.66 0,56.559 -22.5,110.781 -62.578,150.66 z"
         style="fill:#ffffff;fill-opacity:1;fill-rule:evenodd;stroke:none"
         id="path26" /><path
         d="M 375,450.66 C 334.922,410.781 312.422,356.559 312.422,300 c 0,-56.559 22.5,-110.781 62.578,-150.66 40.078,39.879 62.578,94.101 62.578,150.66 0,56.559 -22.5,110.781 -62.578,150.66 z"
         style="fill:none;stroke:#000000;stroke-width:8.50395;stroke-linecap:butt;stroke-linejoin:miter;stroke-miterlimit:4;stroke-dasharray:none;stroke-opacity:1"
         id="path28" /><path
         d="m 71.0508,347.621 v -5.32 c -1.9922,1.019 -3.9024,1.758 -5.7813,2.187 -1.789,0.512 -3.5507,0.782 -5.3086,0.782 -2.9296,0 -5.2304,-0.579 -6.8711,-1.719 -1.5703,-1.172 -2.3515,-2.77 -2.3515,-4.84 0,-1.801 0.5117,-3.121 1.5625,-4.063 1.1406,-0.937 3.168,-1.679 6.0976,-2.187 l 3.2813,-0.621 c 4.0586,-0.86 7.0312,-2.27 8.9101,-4.219 1.9493,-1.883 2.961,-4.461 2.961,-7.66 0,-3.871 -1.3203,-6.84 -3.9024,-8.91 -2.6171,-1.992 -6.4101,-2.961 -11.4101,-2.961 -1.9883,0 -4.0586,0.23 -6.25,0.621 -2.1094,0.391 -4.2891,1.019 -6.5586,1.879 v 5.621 c 2.1914,-1.25 4.3008,-2.191 6.4101,-2.813 2.1797,-0.628 4.2891,-0.937 6.3985,-0.937 3.0117,0 5.3515,0.629 7.0312,1.879 1.7618,1.25 2.6602,2.961 2.6602,5.148 0,1.961 -0.6289,3.481 -1.8789,4.532 -1.25,1.14 -3.2422,2.031 -5.9297,2.66 l -3.2813,0.621 c -4.0703,0.82 -7.039,2.078 -8.9101,3.75 -1.8008,1.758 -2.6602,4.148 -2.6602,7.187 0,3.524 1.25,6.293 3.75,8.282 2.5,2.07 5.9414,3.128 10.3203,3.128 1.8711,0 3.7813,-0.16 5.7813,-0.468 1.9492,-0.309 3.9375,-0.86 5.9297,-1.559 z"
         style="fill:#000000;fill-opacity:1;fill-rule:nonzero;stroke:none"
         id="path30" /><path
         d="m 87.3789,344.488 v -15 h 6.8828 c 2.5,0 4.4102,0.633 5.7773,1.883 1.441,1.328 2.191,3.199 2.191,5.617 0,2.391 -0.75,4.223 -2.191,5.473 -1.3671,1.328 -3.2773,2.027 -5.7773,2.027 z m -5.3086,4.532 h 12.1914 c 4.4492,0 7.8473,-1.051 10.1483,-3.122 2.27,-1.988 3.442,-4.957 3.442,-8.91 0,-3.976 -1.172,-6.988 -3.442,-9.058 -2.301,-1.989 -5.6991,-2.969 -10.1483,-2.969 h -6.8828 v -16.09 h -5.3086 z"
         style="fill:#000000;fill-opacity:1;fill-rule:nonzero;stroke:none"
         id="path32" /><path
         d="m 115.23,349.02 h 25.321 v -4.68 h -20 v -11.879 h 19.058 v -4.531 h -19.058 v -14.532 h 20.469 v -4.527 h -25.79 z"
         style="fill:#000000;fill-opacity:1;fill-rule:nonzero;stroke:none"
         id="path34" /><path
         d="m 163.281,343.551 -7.34,-19.84 h 14.84 z m -2.972,5.469 h 6.101 l 15.309,-40.149 h -5.629 l -3.75,10.309 h -17.961 l -3.758,-10.309 H 145 Z"
         style="fill:#000000;fill-opacity:1;fill-rule:nonzero;stroke:none"
         id="path36" /><path
         d="m 187.621,349.02 h 5.309 v -17.032 l 17.968,17.032 h 7.032 l -19.84,-18.75 21.25,-21.399 h -7.039 l -19.371,19.367 v -19.367 h -5.309 z"
         style="fill:#000000;fill-opacity:1;fill-rule:nonzero;stroke:none"
         id="path38" /><path
         d="m 223.672,349.02 h 25.308 v -4.68 h -20 v -11.879 h 19.071 V 327.93 H 228.98 v -14.532 h 20.469 v -4.527 h -25.777 z"
         style="fill:#000000;fill-opacity:1;fill-rule:nonzero;stroke:none"
         id="path40" /><path
         d="m 277.34,327.621 c 1.14,-0.32 2.269,-1.172 3.441,-2.5 1.129,-1.25 2.231,-3.051 3.278,-5.32 l 5.472,-10.93 h -5.781 l -5.16,10.309 c -1.25,2.699 -2.5,4.449 -3.75,5.308 -1.25,0.821 -2.961,1.25 -5.149,1.25 h -5.941 v -16.867 h -5.309 v 40.149 h 12.18 c 4.578,0 7.969,-1.008 10.16,-2.969 2.27,-1.871 3.438,-4.762 3.438,-8.59 0,-2.621 -0.59,-4.762 -1.719,-6.41 -1.172,-1.563 -2.891,-2.731 -5.16,-3.43 z m -13.59,16.867 V 330.27 h 6.871 c 2.578,0 4.578,0.55 5.938,1.718 1.332,1.25 2.031,3.051 2.031,5.473 0,2.269 -0.699,3.988 -2.031,5.16 -1.36,1.25 -3.36,1.867 -5.938,1.867 z"
         style="fill:#000000;fill-opacity:1;fill-rule:nonzero;stroke:none"
         id="path42" /><path
         d="m 99.3008,270.27 h 5 v -30.1484 h -5 z m 0,11.57 h 5 v -6.25 h -5 z"
         style="fill:#000000;fill-opacity:1;fill-rule:nonzero;stroke:none"
         id="path44" /><path
         d="m 139.57,258.238 v -18.117 h -4.84 v 17.969 c 0,2.808 -0.589,4.922 -1.718,6.398 -1.172,1.453 -2.813,2.192 -5,2.192 -2.742,0 -4.852,-0.899 -6.41,-2.66 -1.481,-1.68 -2.192,-3.981 -2.192,-6.872 v -17.027 h -5 v 30.149 h 5 v -4.68 c 1.141,1.75 2.5,3.039 4.07,3.898 1.641,0.942 3.508,1.41 5.622,1.41 3.437,0 6.019,-1.097 7.808,-3.277 1.762,-2.109 2.66,-5.242 2.66,-9.383 z"
         style="fill:#000000;fill-opacity:1;fill-rule:nonzero;stroke:none"
         id="path46" /><path
         d="m 167.23,280.27 h 7.18 l 17.82,-33.59 v 33.59 h 5.309 v -40.149 h -7.34 l -17.82,33.59 v -33.59 h -5.149 z"
         style="fill:#000000;fill-opacity:1;fill-rule:nonzero;stroke:none"
         id="path48" /><path
         d="m 202.77,280.27 h 5.941 l 11.09,-16.559 10.937,16.559 h 5.942 l -14.219,-21.09 v -19.059 h -5.473 v 19.059 z"
         style="fill:#000000;fill-opacity:1;fill-rule:nonzero;stroke:none"
         id="path50" /><path
         d="m 468.238,349.801 h 5.313 v -16.563 h 19.687 v 16.563 h 5.473 v -40.153 h -5.473 v 19.063 h -19.687 v -19.063 h -5.313 z"
         style="fill:#000000;fill-opacity:1;fill-rule:nonzero;stroke:none"
         id="path52" /><path
         d="m 509.609,349.801 h 25.313 v -4.68 h -20 v -11.883 h 19.058 v -4.527 H 514.922 V 314.18 h 20.469 v -4.532 h -25.782 z"
         style="fill:#000000;fill-opacity:1;fill-rule:nonzero;stroke:none"
         id="path54" /><path
         d="m 557.621,344.34 -7.351,-19.852 h 14.851 z m -2.973,5.461 h 6.09 l 15.313,-40.153 h -5.621 l -3.75,10.313 h -17.969 l -3.75,-10.313 h -5.621 z"
         style="fill:#000000;fill-opacity:1;fill-rule:nonzero;stroke:none"
         id="path56" /><path
         d="m 600.898,328.398 c 1.133,-0.308 2.262,-1.168 3.442,-2.5 1.129,-1.25 2.219,-3.046 3.281,-5.308 l 5.469,-10.942 h -5.789 l -5.153,10.313 c -1.25,2.699 -2.5,4.449 -3.75,5.309 -1.25,0.82 -2.968,1.25 -5.16,1.25 h -5.937 v -16.872 h -5.313 v 40.153 h 12.192 c 4.57,0 7.968,-1.012 10.16,-2.961 2.262,-1.879 3.43,-4.77 3.43,-8.602 0,-2.617 -0.579,-4.758 -1.719,-6.398 -1.172,-1.57 -2.891,-2.738 -5.153,-3.442 z m -13.597,16.872 v -14.219 h 6.879 c 2.582,0 4.57,0.551 5.941,1.719 1.328,1.25 2.027,3.05 2.027,5.468 0,2.274 -0.699,3.992 -2.027,5.16 -1.371,1.25 -3.359,1.872 -5.941,1.872 z"
         style="fill:#000000;fill-opacity:1;fill-rule:nonzero;stroke:none"
         id="path58" /><path
         d="m 620.199,349.801 h 25.313 v -4.68 h -20 v -11.883 h 19.058 v -4.527 H 625.512 V 314.18 h 20.468 v -4.532 h -25.781 z"
         style="fill:#000000;fill-opacity:1;fill-rule:nonzero;stroke:none"
         id="path60" /><path
         d="m 673.871,328.398 c 1.129,-0.308 2.258,-1.168 3.43,-2.5 1.14,-1.25 2.23,-3.046 3.289,-5.308 l 5.461,-10.942 h -5.781 l -5.149,10.313 c -1.25,2.699 -2.5,4.449 -3.75,5.309 -1.25,0.82 -2.973,1.25 -5.16,1.25 h -5.941 v -16.872 h -5.309 v 40.153 h 12.187 c 4.571,0 7.973,-1.012 10.153,-2.961 2.269,-1.879 3.437,-4.77 3.437,-8.602 0,-2.617 -0.578,-4.758 -1.718,-6.398 -1.168,-1.57 -2.891,-2.738 -5.149,-3.442 z M 660.27,345.27 v -14.219 h 6.878 c 2.582,0 4.571,0.551 5.942,1.719 1.32,1.25 2.031,3.05 2.031,5.468 0,2.274 -0.711,3.992 -2.031,5.16 -1.371,1.25 -3.36,1.872 -5.942,1.872 z"
         style="fill:#000000;fill-opacity:1;fill-rule:nonzero;stroke:none"
         id="path62" /><path
         d="m 485.43,271.051 h 5 v -30.1523 h -5 z m 0,11.57 h 5 v -6.25 h -5 z"
         style="fill:#000000;fill-opacity:1;fill-rule:nonzero;stroke:none"
         id="path64" /><path
         d="m 525.699,259.02 v -18.122 h -4.84 v 17.973 c 0,2.809 -0.589,4.918 -1.718,6.399 -1.172,1.449 -2.813,2.191 -5,2.191 -2.731,0 -4.84,-0.902 -6.411,-2.66 -1.48,-1.68 -2.179,-3.981 -2.179,-6.871 v -17.032 h -5 v 30.153 h 5 v -4.68 c 1.129,1.75 2.5,3.039 4.058,3.899 1.641,0.941 3.512,1.41 5.621,1.41 3.442,0 6.02,-1.09 7.821,-3.282 1.75,-2.109 2.648,-5.238 2.648,-9.378 z"
         style="fill:#000000;fill-opacity:1;fill-rule:nonzero;stroke:none"
         id="path66" /><path
         d="m 553.359,281.051 h 7.192 l 17.808,-33.59 v 33.59 h 5.313 v -40.153 h -7.344 l -17.808,33.59 v -33.59 h -5.161 z"
         style="fill:#000000;fill-opacity:1;fill-rule:nonzero;stroke:none"
         id="path68" /><path
         d="m 588.871,281.051 h 5.93 l 11.097,-16.563 10.942,16.563 h 5.93 l -14.219,-21.09 v -19.063 h -5.461 v 19.063 z"
         style="fill:#000000;fill-opacity:1;fill-rule:nonzero;stroke:none"
         id="path70" /></g></g></svg>
