<?xml version="1.0" encoding="UTF-8" standalone="no"?>
<svg
   xmlns:osb="http://www.openswatchbook.org/uri/2009/osb"
   xmlns:dc="http://purl.org/dc/elements/1.1/"
   xmlns:cc="http://creativecommons.org/ns#"
   xmlns:rdf="http://www.w3.org/1999/02/22-rdf-syntax-ns#"
   xmlns:svg="http://www.w3.org/2000/svg"
   xmlns="http://www.w3.org/2000/svg"
   xmlns:sodipodi="http://sodipodi.sourceforge.net/DTD/sodipodi-0.dtd"
   xmlns:inkscape="http://www.inkscape.org/namespaces/inkscape"
   width="101.08588"
   height="101.26655"
   viewBox="0 0 26.74564 26.793441"
   version="1.1"
   id="svg8"
   inkscape:version="1.0.1 (3bc2e813f5, 2020-09-07)"
   sodipodi:docname="3_venn.svg">
  <defs
     id="defs2">
    <linearGradient
       id="linearGradient2922"
       osb:paint="solid">
      <stop
         style="stop-color:#392d5e;stop-opacity:1;"
         offset="0"
         id="stop2920" />
    </linearGradient>
    <linearGradient
       id="linearGradient2914"
       osb:paint="solid">
      <stop
         style="stop-color:#392d5e;stop-opacity:1;"
         offset="0"
         id="stop2912" />
    </linearGradient>
  </defs>
  <sodipodi:namedview
     id="base"
     pagecolor="#ffffff"
     bordercolor="#666666"
     borderopacity="1.0"
     inkscape:pageopacity="0.0"
     inkscape:pageshadow="2"
     inkscape:zoom="5.6"
     inkscape:cx="54.28345"
     inkscape:cy="55.48278"
     inkscape:document-units="mm"
     inkscape:current-layer="g3565"
     inkscape:document-rotation="0"
     showgrid="false"
     units="px"
     inkscape:snap-bbox="true"
     inkscape:snap-object-midpoints="true"
     inkscape:snap-text-baseline="false"
     inkscape:window-width="1274"
     inkscape:window-height="1388"
     inkscape:window-x="0"
     inkscape:window-y="49"
     inkscape:window-maximized="0"
     inkscape:snap-grids="true"
     inkscape:snap-to-guides="true"
     fit-margin-top="0"
     fit-margin-left="0"
     fit-margin-right="0"
     fit-margin-bottom="0">
    <inkscape:grid
       type="xygrid"
       id="grid10"
       spacingx="2.6458333"
       spacingy="2.6458333"
       originx="0.14365389"
       originy="-2.4782796"
       empspacing="2" />
  </sodipodi:namedview>
  <metadata
     id="metadata5">
    <rdf:RDF>
      <cc:Work
         rdf:about="">
        <dc:format>image/svg+xml</dc:format>
        <dc:type
           rdf:resource="http://purl.org/dc/dcmitype/StillImage" />
        <dc:title></dc:title>
      </cc:Work>
    </rdf:RDF>
  </metadata>
  <g
     inkscape:label="U"
     inkscape:groupmode="layer"
     id="g3059"
     style="display:inline"
     transform="translate(0.14365389,-2.4782796)">
    <rect
       style="fill:#ffffff;fill-opacity:1;fill-rule:evenodd;stroke:#000000;stroke-width:0.335108;stroke-miterlimit:4;stroke-dasharray:none;stroke-opacity:1"
       id="rect3096"
       width="26.410532"
       height="26.458332"
       x="0.023900118"
       y="2.6458335" />
  </g>
  <g
     inkscape:groupmode="layer"
     id="layer3"
     inkscape:label="Circs"
     transform="translate(0.14365389,-2.4782796)"
     style="display:inline">
    <path
       id="path3441"
       style="opacity:0.998;fill:#b9ffb9;fill-opacity:1;fill-rule:evenodd;stroke:#000000;stroke-width:1.13386;stroke-miterlimit:4;stroke-dasharray:none;stroke-opacity:1"
       d="M 50.521484,19.548828 C 42.718869,11.362747 29.530842,8.8143426 19.394531,14.126953 7.8907008,19.581358 1.8033984,33.917168 5.859375,45.982422 c 3.5729102,12.219965 16.770273,20.492145 29.324219,18.388672 5.905507,-0.747044 11.22733,-3.769678 15.27539,-8.011719 a 26.666666,26.666666 0 0 1 -0.06445,-0.06641 26.666666,26.666666 0 0 1 -0.294922,-0.316407 26.666666,26.666666 0 0 1 -0.291015,-0.324218 26.666666,26.666666 0 0 1 -0.285156,-0.328125 26.666666,26.666666 0 0 1 -0.279297,-0.332031 26.666666,26.666666 0 0 1 -0.273438,-0.335938 26.666666,26.666666 0 0 1 -0.269531,-0.341797 26.666666,26.666666 0 0 1 -0.261719,-0.345703 26.666666,26.666666 0 0 1 -0.257812,-0.349609 26.666666,26.666666 0 0 1 -0.251953,-0.353516 26.666666,26.666666 0 0 1 -0.246094,-0.357422 26.666666,26.666666 0 0 1 -0.240235,-0.361328 26.666666,26.666666 0 0 1 -0.234375,-0.367187 26.666666,26.666666 0 0 1 -0.228515,-0.369141 26.666666,26.666666 0 0 1 -0.220703,-0.373047 26.666666,26.666666 0 0 1 -0.216797,-0.376953 26.666666,26.666666 0 0 1 -0.208985,-0.378906 26.666666,26.666666 0 0 1 -0.203125,-0.384766 26.666666,26.666666 0 0 1 -0.197265,-0.386719 26.666666,26.666666 0 0 1 -0.191406,-0.390625 26.666666,26.666666 0 0 1 -0.185547,-0.392578 26.666666,26.666666 0 0 1 -0.177735,-0.396484 26.666666,26.666666 0 0 1 -0.171875,-0.398438 26.666666,26.666666 0 0 1 -0.164062,-0.40039 26.666666,26.666666 0 0 1 -0.160157,-0.404297 26.666666,26.666666 0 0 1 -0.15039,-0.408203 26.666666,26.666666 0 0 1 -0.146484,-0.408203 26.666666,26.666666 0 0 1 -0.138672,-0.41211 26.666666,26.666666 0 0 1 -0.13086,-0.414062 26.666666,26.666666 0 0 1 -0.126953,-0.414063 26.666666,26.666666 0 0 1 -0.117187,-0.417969 26.666666,26.666666 0 0 1 -0.111328,-0.419922 26.666666,26.666666 0 0 1 -0.105469,-0.421874 26.666666,26.666666 0 0 1 -0.09766,-0.423829 26.666666,26.666666 0 0 1 -0.0918,-0.423828 26.666666,26.666666 0 0 1 -0.08398,-0.425781 26.666666,26.666666 0 0 1 -0.07617,-0.427734 26.666666,26.666666 0 0 1 -0.07031,-0.427735 26.666666,26.666666 0 0 1 -0.0625,-0.429687 26.666666,26.666666 0 0 1 -0.05664,-0.431641 26.666666,26.666666 0 0 1 -0.04883,-0.431641 26.666666,26.666666 0 0 1 -0.04297,-0.43164 26.666666,26.666666 0 0 1 -0.03516,-0.433594 26.666666,26.666666 0 0 1 -0.02734,-0.43164 26.666666,26.666666 0 0 1 -0.02148,-0.433594 26.666666,26.666666 0 0 1 -0.01367,-0.435547 26.666666,26.666666 0 0 1 -0.0078,-0.433594 26.666666,26.666666 0 0 1 0,-0.201172 26.666666,26.666666 0 0 1 0.0039,-0.433593 26.666666,26.666666 0 0 1 0.0098,-0.435547 26.666666,26.666666 0 0 1 0.01758,-0.433594 26.666666,26.666666 0 0 1 0.02539,-0.433594 26.666666,26.666666 0 0 1 0.03125,-0.431641 26.666666,26.666666 0 0 1 0.03906,-0.433593 26.666666,26.666666 0 0 1 0.04687,-0.431641 26.666666,26.666666 0 0 1 0.05273,-0.43164 26.666666,26.666666 0 0 1 0.05859,-0.429688 26.666666,26.666666 0 0 1 0.06836,-0.427734 26.666666,26.666666 0 0 1 0.07422,-0.429688 26.666666,26.666666 0 0 1 0.08008,-0.425781 26.666666,26.666666 0 0 1 0.08789,-0.425781 26.666666,26.666666 0 0 1 0.09375,-0.423828 26.666666,26.666666 0 0 1 0.101562,-0.421876 26.666666,26.666666 0 0 1 0.109375,-0.419921 26.666666,26.666666 0 0 1 0.115235,-0.417969 26.666666,26.666666 0 0 1 0.121093,-0.417969 26.666666,26.666666 0 0 1 0.128907,-0.414062 26.666666,26.666666 0 0 1 0.136718,-0.41211 26.666666,26.666666 0 0 1 0.142578,-0.410156 26.666666,26.666666 0 0 1 0.148438,-0.408203 26.666666,26.666666 0 0 1 0.15625,-0.40625 26.666666,26.666666 0 0 1 0.162109,-0.402344 26.666666,26.666666 0 0 1 0.167969,-0.40039 26.666666,26.666666 0 0 1 0.175781,-0.396485 26.666666,26.666666 0 0 1 0.181641,-0.394531 26.666666,26.666666 0 0 1 0.1875,-0.392578 26.666666,26.666666 0 0 1 0.193359,-0.388672 26.666666,26.666666 0 0 1 0.201172,-0.384766 26.666666,26.666666 0 0 1 0.207031,-0.380859 26.666666,26.666666 0 0 1 0.212891,-0.378906 26.666666,26.666666 0 0 1 0.21875,-0.375 26.666666,26.666666 0 0 1 0.226563,-0.371094 26.666666,26.666666 0 0 1 0.230468,-0.367188 26.666666,26.666666 0 0 1 0.238282,-0.363281 26.666666,26.666666 0 0 1 0.242187,-0.359375 26.666666,26.666666 0 0 1 0.25,-0.357422 26.666666,26.666666 0 0 1 0.253906,-0.351562 26.666666,26.666666 0 0 1 0.259766,-0.347657 26.666666,26.666666 0 0 1 0.267578,-0.341796 26.666666,26.666666 0 0 1 0.271485,-0.339844 26.666666,26.666666 0 0 1 0.277343,-0.333984 26.666666,26.666666 0 0 1 0.28125,-0.330079 26.666666,26.666666 0 0 1 0.289063,-0.324218 26.666666,26.666666 0 0 1 0.292968,-0.320313 26.666666,26.666666 0 0 1 0.263672,-0.28125 z"
       transform="matrix(0.26458333,0,0,0.26458333,-0.14365389,2.4782796)" />
    <path
       id="path3567"
       style="opacity:0.998;fill:#b9ffb9;fill-opacity:1;fill-rule:evenodd;stroke:#000000;stroke-width:1.13386;stroke-miterlimit:4;stroke-dasharray:none;stroke-opacity:1"
       d="m 50.521484,19.548828 a 26.666666,26.666666 0 0 0 -0.263672,0.28125 26.666666,26.666666 0 0 0 -0.292968,0.320313 26.666666,26.666666 0 0 0 -0.289063,0.324218 26.666666,26.666666 0 0 0 -0.28125,0.330079 26.666666,26.666666 0 0 0 -0.277343,0.333984 26.666666,26.666666 0 0 0 -0.271485,0.339844 26.666666,26.666666 0 0 0 -0.267578,0.341796 26.666666,26.666666 0 0 0 -0.259766,0.347657 26.666666,26.666666 0 0 0 -0.253906,0.351562 26.666666,26.666666 0 0 0 -0.25,0.357422 26.666666,26.666666 0 0 0 -0.242187,0.359375 26.666666,26.666666 0 0 0 -0.238282,0.363281 26.666666,26.666666 0 0 0 -0.230468,0.367188 26.666666,26.666666 0 0 0 -0.226563,0.371094 26.666666,26.666666 0 0 0 -0.21875,0.375 26.666666,26.666666 0 0 0 -0.212891,0.378906 26.666666,26.666666 0 0 0 -0.207031,0.380859 26.666666,26.666666 0 0 0 -0.201172,0.384766 26.666666,26.666666 0 0 0 -0.193359,0.388672 26.666666,26.666666 0 0 0 -0.1875,0.392578 26.666666,26.666666 0 0 0 -0.181641,0.394531 26.666666,26.666666 0 0 0 -0.175781,0.396485 26.666666,26.666666 0 0 0 -0.167969,0.40039 26.666666,26.666666 0 0 0 -0.162109,0.402344 26.666666,26.666666 0 0 0 -0.15625,0.40625 26.666666,26.666666 0 0 0 -0.148438,0.408203 26.666666,26.666666 0 0 0 -0.142578,0.410156 26.666666,26.666666 0 0 0 -0.136718,0.41211 26.666666,26.666666 0 0 0 -0.128907,0.414062 26.666666,26.666666 0 0 0 -0.121093,0.417969 26.666666,26.666666 0 0 0 -0.115235,0.417969 26.666666,26.666666 0 0 0 -0.109375,0.419921 26.666666,26.666666 0 0 0 -0.101562,0.421876 26.666666,26.666666 0 0 0 -0.09375,0.423828 26.666666,26.666666 0 0 0 -0.08789,0.425781 26.666666,26.666666 0 0 0 -0.08008,0.425781 26.666666,26.666666 0 0 0 -0.07422,0.429688 26.666666,26.666666 0 0 0 -0.06836,0.427734 26.666666,26.666666 0 0 0 -0.05859,0.429688 26.666666,26.666666 0 0 0 -0.05273,0.43164 26.666666,26.666666 0 0 0 -0.04687,0.431641 26.666666,26.666666 0 0 0 -0.03906,0.433593 26.666666,26.666666 0 0 0 -0.03125,0.431641 26.666666,26.666666 0 0 0 -0.02539,0.433594 26.666666,26.666666 0 0 0 -0.01758,0.433594 26.666666,26.666666 0 0 0 -0.0098,0.435547 26.666666,26.666666 0 0 0 -0.0039,0.433593 26.666666,26.666666 0 0 0 0,0.201172 26.666666,26.666666 0 0 0 0.0078,0.433594 26.666666,26.666666 0 0 0 0.01367,0.435547 26.666666,26.666666 0 0 0 0.02148,0.433594 26.666666,26.666666 0 0 0 0.02734,0.43164 26.666666,26.666666 0 0 0 0.03516,0.433594 26.666666,26.666666 0 0 0 0.04297,0.43164 26.666666,26.666666 0 0 0 0.04883,0.431641 26.666666,26.666666 0 0 0 0.05664,0.431641 26.666666,26.666666 0 0 0 0.0625,0.429687 26.666666,26.666666 0 0 0 0.07031,0.427735 26.666666,26.666666 0 0 0 0.07617,0.427734 26.666666,26.666666 0 0 0 0.08398,0.425781 26.666666,26.666666 0 0 0 0.0918,0.423828 26.666666,26.666666 0 0 0 0.09766,0.423829 26.666666,26.666666 0 0 0 0.105469,0.421874 26.666666,26.666666 0 0 0 0.111328,0.419922 26.666666,26.666666 0 0 0 0.117187,0.417969 26.666666,26.666666 0 0 0 0.126953,0.414063 26.666666,26.666666 0 0 0 0.13086,0.414062 26.666666,26.666666 0 0 0 0.138672,0.41211 26.666666,26.666666 0 0 0 0.146484,0.408203 26.666666,26.666666 0 0 0 0.15039,0.408203 26.666666,26.666666 0 0 0 0.160157,0.404297 26.666666,26.666666 0 0 0 0.164062,0.40039 26.666666,26.666666 0 0 0 0.171875,0.398438 26.666666,26.666666 0 0 0 0.177735,0.396484 26.666666,26.666666 0 0 0 0.185547,0.392578 26.666666,26.666666 0 0 0 0.191406,0.390625 26.666666,26.666666 0 0 0 0.197265,0.386719 26.666666,26.666666 0 0 0 0.203125,0.384766 26.666666,26.666666 0 0 0 0.208985,0.378906 26.666666,26.666666 0 0 0 0.216797,0.376953 26.666666,26.666666 0 0 0 0.220703,0.373047 26.666666,26.666666 0 0 0 0.228515,0.369141 26.666666,26.666666 0 0 0 0.234375,0.367187 26.666666,26.666666 0 0 0 0.240235,0.361328 26.666666,26.666666 0 0 0 0.246094,0.357422 26.666666,26.666666 0 0 0 0.251953,0.353516 26.666666,26.666666 0 0 0 0.257812,0.349609 26.666666,26.666666 0 0 0 0.261719,0.345703 26.666666,26.666666 0 0 0 0.269531,0.341797 26.666666,26.666666 0 0 0 0.273438,0.335938 26.666666,26.666666 0 0 0 0.279297,0.332031 26.666666,26.666666 0 0 0 0.285156,0.328125 26.666666,26.666666 0 0 0 0.291015,0.324218 26.666666,26.666666 0 0 0 0.294922,0.316407 26.666666,26.666666 0 0 0 0.06445,0.06641 c 4.687298,-4.91191 7.646302,-11.479972 7.50586,-18.371094 0.01087,-5.52542 -1.754424,-11.030375 -4.978516,-15.517578 -0.727467,-1.060779 -1.587865,-2.001796 -2.464844,-2.921875 z"
       transform="matrix(0.26458333,0,0,0.26458333,-0.14365389,2.4782796)" />
  </g>
  <g
     inkscape:groupmode="layer"
     id="g3565"
     inkscape:label="Circs copy"
     transform="translate(0.14365389,-2.4782796)"
     style="display:inline">
    <path
       id="path3563"
       style="opacity:0.998;fill:#b9ffb9;fill-opacity:1;fill-rule:evenodd;stroke:#000000;stroke-width:1.13386;stroke-miterlimit:4;stroke-dasharray:none;stroke-opacity:1"
       d="M 69.583984 11.322266 A 26.666666 26.666666 0 0 0 50.568359 19.5 C 51.446003 20.420587 52.258384 21.409229 52.986328 22.470703 C 56.21042 26.957906 57.975714 32.462861 57.964844 37.988281 C 58.105306 44.880367 55.202125 51.505852 50.513672 56.417969 A 26.666666 26.666666 0 0 0 69.785156 64.654297 A 26.666666 26.666666 0 0 0 96.453125 37.988281 A 26.666666 26.666666 0 0 0 69.785156 11.322266 A 26.666666 26.666666 0 0 0 69.583984 11.322266 z "
       transform="matrix(0.26458333,0,0,0.26458333,-0.14365389,2.4782796)" />
  </g>
  <g
     inkscape:groupmode="layer"
     id="g3540"
     inkscape:label="Other"
     transform="translate(0.14365389,-2.4782796)"
     style="display:inline">
    <path
       id="path3534"
       style="opacity:0.998;fill:#ffffff;fill-opacity:1;fill-rule:evenodd;stroke:#000000;stroke-width:1.13386;stroke-miterlimit:4;stroke-dasharray:none;stroke-opacity:1"
       d="m 50.513672,56.417969 a 26.666666,26.666666 0 0 0 0.302734,0.310547 26.666666,26.666666 0 0 0 0.306641,0.30664 26.666666,26.666666 0 0 0 0.314453,0.302735 26.666666,26.666666 0 0 0 0.316406,0.294921 26.666666,26.666666 0 0 0 0.322266,0.291016 26.666666,26.666666 0 0 0 0.328125,0.28711 26.666666,26.666666 0 0 0 0.330078,0.279296 26.666666,26.666666 0 0 0 0.335937,0.275391 26.666666,26.666666 0 0 0 0.341797,0.269531 26.666666,26.666666 0 0 0 0.34375,0.263672 26.666666,26.666666 0 0 0 0.34961,0.257813 26.666666,26.666666 0 0 0 0.353515,0.251953 26.666666,26.666666 0 0 0 0.357422,0.248047 26.666666,26.666666 0 0 0 0.361328,0.240234 26.666666,26.666666 0 0 0 0.365235,0.234375 26.666666,26.666666 0 0 0 0.36914,0.228516 26.666666,26.666666 0 0 0 0.373047,0.224609 26.666666,26.666666 0 0 0 0.375,0.216797 26.666666,26.666666 0 0 0 0.38086,0.208984 26.666666,26.666666 0 0 0 0.382812,0.205078 26.666666,26.666666 0 0 0 0.386719,0.199219 26.666666,26.666666 0 0 0 0.388672,0.191406 26.666666,26.666666 0 0 0 0.392578,0.185547 26.666666,26.666666 0 0 0 0.396484,0.177735 26.666666,26.666666 0 0 0 0.398438,0.173828 26.666666,26.666666 0 0 0 0.40039,0.166015 26.666666,26.666666 0 0 0 0.404297,0.160157 26.666666,26.666666 0 0 0 0.40625,0.152343 26.666666,26.666666 0 0 0 0.408203,0.146485 26.666666,26.666666 0 0 0 0.41211,0.138672 26.666666,26.666666 0 0 0 0.412109,0.132812 26.666666,26.666666 0 0 0 0.416016,0.126953 26.666666,26.666666 0 0 0 0.417968,0.119141 26.666666,26.666666 0 0 0 0.419922,0.113281 26.666666,26.666666 0 0 0 0.419922,0.105469 26.666666,26.666666 0 0 0 0.423828,0.09766 26.666666,26.666666 0 0 0 0.423828,0.0918 26.666666,26.666666 0 0 0 0.425782,0.08594 26.666666,26.666666 0 0 0 0.427734,0.07812 26.666666,26.666666 0 0 0 0.427734,0.07031 26.666666,26.666666 0 0 0 0.429688,0.06445 26.666666,26.666666 0 0 0 0.429688,0.05664 26.666666,26.666666 0 0 0 0.43164,0.05078 26.666666,26.666666 0 0 0 0.433594,0.04297 26.666666,26.666666 0 0 0 0.43164,0.03711 26.666666,26.666666 0 0 0 0.433594,0.0293 26.666666,26.666666 0 0 0 0.433594,0.02148 26.666666,26.666666 0 0 0 0.433594,0.01367 26.666666,26.666666 0 0 0 0.433594,0.0078 26.666666,26.666666 0 0 0 0.261718,0.002 26.666666,26.666666 0 0 0 0.433594,-0.0039 26.666666,26.666666 0 0 0 0.435547,-0.0098 26.666666,26.666666 0 0 0 0.433594,-0.01758 26.666666,26.666666 0 0 0 0.433593,-0.02539 26.666666,26.666666 0 0 0 0.431641,-0.03125 26.666666,26.666666 0 0 0 0.433594,-0.03906 26.666666,26.666666 0 0 0 0.43164,-0.04687 26.666666,26.666666 0 0 0 0.431641,-0.05273 26.666666,26.666666 0 0 0 0.429688,-0.05859 26.666666,26.666666 0 0 0 0.427734,-0.06836 26.666666,26.666666 0 0 0 0.429687,-0.07227 26.666666,26.666666 0 0 0 0.425782,-0.08203 26.666666,26.666666 0 0 0 0.425781,-0.08789 26.666666,26.666666 0 0 0 0.423828,-0.09375 26.666666,26.666666 0 0 0 0.421875,-0.101563 26.666666,26.666666 0 0 0 0.193359,-0.05078 C 75.633088,60.430097 74.259978,57.183991 72.230469,54.359375 68.680003,49.18215 63.19784,45.664353 57.207031,44.117188 c -0.312851,1.298793 -0.646657,2.595026 -1.15625,3.828124 -0.647147,1.565949 -1.445708,3.07064 -2.375,4.490235 -0.929292,1.419594 -1.989996,2.754393 -3.162109,3.982422 z"
       transform="matrix(0.26458333,0,0,0.26458333,-0.14365389,2.4782796)" />
    <path
       id="path3548"
       style="opacity:0.998;fill:#ffffff;fill-opacity:1;fill-rule:evenodd;stroke:#000000;stroke-width:1.13386;stroke-miterlimit:4;stroke-dasharray:none;stroke-opacity:1"
       d="m 50.513672,56.417969 c 1.172113,-1.228029 2.232817,-2.562828 3.162109,-3.982422 0.929292,-1.419595 1.727853,-2.924286 2.375,-4.490235 0.509593,-1.233098 0.843399,-2.529331 1.15625,-3.828124 -4.373958,-1.129604 -9.004415,-1.155892 -13.378906,-0.02734 a 26.666666,26.666666 0 0 0 0.06836,0.287109 26.666666,26.666666 0 0 0 0.107422,0.421875 26.666666,26.666666 0 0 0 0.113282,0.417969 26.666666,26.666666 0 0 0 0.121093,0.417969 26.666666,26.666666 0 0 0 0.128907,0.414062 26.666666,26.666666 0 0 0 0.134765,0.414063 26.666666,26.666666 0 0 0 0.140625,0.410156 26.666666,26.666666 0 0 0 0.148438,0.408203 26.666666,26.666666 0 0 0 0.154296,0.40625 26.666666,26.666666 0 0 0 0.16211,0.402344 26.666666,26.666666 0 0 0 0.167969,0.40039 26.666666,26.666666 0 0 0 0.173828,0.398438 26.666666,26.666666 0 0 0 0.179687,0.394531 26.666666,26.666666 0 0 0 0.1875,0.392578 26.666666,26.666666 0 0 0 0.19336,0.388672 26.666666,26.666666 0 0 0 0.201172,0.384766 26.666666,26.666666 0 0 0 0.205078,0.382812 26.666666,26.666666 0 0 0 0.21289,0.378907 26.666666,26.666666 0 0 0 0.21875,0.375 26.666666,26.666666 0 0 0 0.22461,0.371093 26.666666,26.666666 0 0 0 0.230468,0.369141 26.666666,26.666666 0 0 0 0.236328,0.363281 26.666666,26.666666 0 0 0 0.242188,0.359375 26.666666,26.666666 0 0 0 0.248047,0.357422 26.666666,26.666666 0 0 0 0.253906,0.351562 26.666666,26.666666 0 0 0 0.259766,0.347657 26.666666,26.666666 0 0 0 0.265625,0.34375 26.666666,26.666666 0 0 0 0.269531,0.339843 26.666666,26.666666 0 0 0 0.277344,0.335938 26.666666,26.666666 0 0 0 0.28125,0.330078 26.666666,26.666666 0 0 0 0.287109,0.326172 26.666666,26.666666 0 0 0 0.292969,0.320312 26.666666,26.666666 0 0 0 0.296875,0.316407 z"
       transform="matrix(0.26458333,0,0,0.26458333,-0.14365389,2.4782796)" />
    <path
       id="path3546"
       style="opacity:0.998;fill:#ffffff;fill-opacity:1;fill-rule:evenodd;stroke:#000000;stroke-width:1.13386;stroke-miterlimit:4;stroke-dasharray:none;stroke-opacity:1"
       d="m 24.632812,63.734375 c -1.132473,4.633151 -1.072213,9.547029 0.470704,14.136719 3.57291,12.219964 16.770272,20.490192 29.324218,18.386718 12.743566,-1.612055 23.042983,-13.538402 22.78125,-26.380859 0.004,-2.047264 -0.313516,-4.073549 -0.78125,-6.064453 a 26.666666,26.666666 0 0 1 -0.193359,0.05078 26.666666,26.666666 0 0 1 -0.421875,0.101563 26.666666,26.666666 0 0 1 -0.423828,0.09375 26.666666,26.666666 0 0 1 -0.425781,0.08789 26.666666,26.666666 0 0 1 -0.425782,0.08203 26.666666,26.666666 0 0 1 -0.429687,0.07227 26.666666,26.666666 0 0 1 -0.427734,0.06836 26.666666,26.666666 0 0 1 -0.429688,0.05859 26.666666,26.666666 0 0 1 -0.431641,0.05273 26.666666,26.666666 0 0 1 -0.43164,0.04687 26.666666,26.666666 0 0 1 -0.433594,0.03906 26.666666,26.666666 0 0 1 -0.431641,0.03125 26.666666,26.666666 0 0 1 -0.433593,0.02539 26.666666,26.666666 0 0 1 -0.433594,0.01758 26.666666,26.666666 0 0 1 -0.435547,0.0098 26.666666,26.666666 0 0 1 -0.433594,0.0039 26.666666,26.666666 0 0 1 -0.261718,-0.002 26.666666,26.666666 0 0 1 -0.433594,-0.0078 26.666666,26.666666 0 0 1 -0.433594,-0.01367 26.666666,26.666666 0 0 1 -0.433594,-0.02148 26.666666,26.666666 0 0 1 -0.433594,-0.0293 26.666666,26.666666 0 0 1 -0.43164,-0.03711 26.666666,26.666666 0 0 1 -0.433594,-0.04297 26.666666,26.666666 0 0 1 -0.43164,-0.05078 26.666666,26.666666 0 0 1 -0.429688,-0.05664 26.666666,26.666666 0 0 1 -0.429688,-0.06445 26.666666,26.666666 0 0 1 -0.427734,-0.07031 26.666666,26.666666 0 0 1 -0.427734,-0.07812 26.666666,26.666666 0 0 1 -0.425782,-0.08594 26.666666,26.666666 0 0 1 -0.423828,-0.0918 26.666666,26.666666 0 0 1 -0.423828,-0.09766 26.666666,26.666666 0 0 1 -0.419922,-0.105469 26.666666,26.666666 0 0 1 -0.419922,-0.113281 26.666666,26.666666 0 0 1 -0.417968,-0.119141 26.666666,26.666666 0 0 1 -0.416016,-0.126953 26.666666,26.666666 0 0 1 -0.412109,-0.132812 26.666666,26.666666 0 0 1 -0.41211,-0.138672 26.666666,26.666666 0 0 1 -0.408203,-0.146485 26.666666,26.666666 0 0 1 -0.40625,-0.152343 26.666666,26.666666 0 0 1 -0.404297,-0.160157 26.666666,26.666666 0 0 1 -0.40039,-0.166015 26.666666,26.666666 0 0 1 -0.398438,-0.173828 26.666666,26.666666 0 0 1 -0.396484,-0.177735 26.666666,26.666666 0 0 1 -0.392578,-0.185547 26.666666,26.666666 0 0 1 -0.388672,-0.191406 26.666666,26.666666 0 0 1 -0.386719,-0.199219 26.666666,26.666666 0 0 1 -0.382812,-0.205078 26.666666,26.666666 0 0 1 -0.38086,-0.208984 26.666666,26.666666 0 0 1 -0.375,-0.216797 26.666666,26.666666 0 0 1 -0.373047,-0.224609 26.666666,26.666666 0 0 1 -0.36914,-0.228516 26.666666,26.666666 0 0 1 -0.365235,-0.234375 26.666666,26.666666 0 0 1 -0.361328,-0.240234 26.666666,26.666666 0 0 1 -0.357422,-0.248047 26.666666,26.666666 0 0 1 -0.353515,-0.251953 26.666666,26.666666 0 0 1 -0.34961,-0.257813 26.666666,26.666666 0 0 1 -0.34375,-0.263672 26.666666,26.666666 0 0 1 -0.341797,-0.269531 26.666666,26.666666 0 0 1 -0.335937,-0.275391 26.666666,26.666666 0 0 1 -0.330078,-0.279296 26.666666,26.666666 0 0 1 -0.328125,-0.28711 26.666666,26.666666 0 0 1 -0.322266,-0.291016 26.666666,26.666666 0 0 1 -0.316406,-0.294921 26.666666,26.666666 0 0 1 -0.314453,-0.302735 26.666666,26.666666 0 0 1 -0.306641,-0.30664 26.666666,26.666666 0 0 1 -0.302734,-0.310547 c -1.011959,1.060234 -2.107794,2.041688 -3.273438,2.927734 -1.165644,0.886046 -2.401077,1.676976 -3.695312,2.359375 -1.294236,0.682399 -2.647189,1.255784 -4.044922,1.705078 -1.397733,0.449294 -2.840269,0.774207 -4.316406,0.960938 -1.569243,0.262934 -3.149455,0.363203 -4.71875,0.314453 -1.569296,-0.04875 -3.127011,-0.246705 -4.65625,-0.582031 -0.401529,-0.08805 -0.77876,-0.262431 -1.175782,-0.369141 z"
       transform="matrix(0.26458333,0,0,0.26458333,-0.14365389,2.4782796)" />
    <path
       id="path3544"
       style="opacity:0.998;fill:#ffffff;fill-opacity:1;fill-rule:evenodd;stroke:#000000;stroke-width:1.13386;stroke-miterlimit:4;stroke-dasharray:none;stroke-opacity:1"
       d="m 24.632812,63.734375 c 0.397022,0.10671 0.774253,0.281095 1.175782,0.369141 1.529239,0.335326 3.086954,0.53328 4.65625,0.582031 1.569295,0.04875 3.149507,-0.05152 4.71875,-0.314453 1.476137,-0.186731 2.918673,-0.511644 4.316406,-0.960938 1.397733,-0.449294 2.750686,-1.022679 4.044922,-1.705078 1.294235,-0.682399 2.529668,-1.473329 3.695312,-2.359375 1.165644,-0.886046 2.261479,-1.8675 3.273438,-2.927734 A 26.666666,26.666666 0 0 1 50.216797,56.101562 26.666666,26.666666 0 0 1 49.923828,55.78125 26.666666,26.666666 0 0 1 49.636719,55.455078 26.666666,26.666666 0 0 1 49.355469,55.125 26.666666,26.666666 0 0 1 49.078125,54.789062 26.666666,26.666666 0 0 1 48.808594,54.449219 26.666666,26.666666 0 0 1 48.542969,54.105469 26.666666,26.666666 0 0 1 48.283203,53.757812 26.666666,26.666666 0 0 1 48.029297,53.40625 26.666666,26.666666 0 0 1 47.78125,53.048828 a 26.666666,26.666666 0 0 1 -0.242188,-0.359375 26.666666,26.666666 0 0 1 -0.236328,-0.363281 26.666666,26.666666 0 0 1 -0.230468,-0.369141 26.666666,26.666666 0 0 1 -0.22461,-0.371093 26.666666,26.666666 0 0 1 -0.21875,-0.375 26.666666,26.666666 0 0 1 -0.21289,-0.378907 26.666666,26.666666 0 0 1 -0.205078,-0.382812 26.666666,26.666666 0 0 1 -0.201172,-0.384766 26.666666,26.666666 0 0 1 -0.19336,-0.388672 26.666666,26.666666 0 0 1 -0.1875,-0.392578 26.666666,26.666666 0 0 1 -0.179687,-0.394531 26.666666,26.666666 0 0 1 -0.173828,-0.398438 26.666666,26.666666 0 0 1 -0.167969,-0.40039 26.666666,26.666666 0 0 1 -0.16211,-0.402344 26.666666,26.666666 0 0 1 -0.154296,-0.40625 26.666666,26.666666 0 0 1 -0.148438,-0.408203 26.666666,26.666666 0 0 1 -0.140625,-0.410156 26.666666,26.666666 0 0 1 -0.134765,-0.414063 26.666666,26.666666 0 0 1 -0.128907,-0.414062 26.666666,26.666666 0 0 1 -0.121093,-0.417969 26.666666,26.666666 0 0 1 -0.113282,-0.417969 26.666666,26.666666 0 0 1 -0.107422,-0.421875 26.666666,26.666666 0 0 1 -0.06836,-0.287109 c -1.783982,0.460238 -3.533863,1.056105 -5.189453,1.923828 -7.127709,3.379519 -12.161318,10.174351 -14.005859,17.720703 z"
       transform="matrix(0.26458333,0,0,0.26458333,-0.14365389,2.4782796)" />
  </g>
  <g
     inkscape:groupmode="layer"
     id="layer2"
     inkscape:label="Text"
     transform="translate(0.14365389,-2.4782796)">
    <text
       xml:space="preserve"
       style="font-style:normal;font-weight:normal;font-size:1.94028px;line-height:1.25;font-family:sans-serif;text-align:start;writing-mode:lr-tb;direction:ltr;text-anchor:start;fill:#000000;fill-opacity:1;stroke:none;stroke-width:0.264583"
       x="2.0176635"
       y="11.759318"
       id="text3107"><tspan
         sodipodi:role="line"
         x="2.0176635"
         y="11.759318"
         style="font-size:1.94028px;text-align:start;writing-mode:lr-tb;direction:ltr;text-anchor:start;stroke-width:0.264583"
         id="tspan3109">SPEAKER</tspan><tspan
         sodipodi:role="line"
         x="2.0176635"
         y="14.184669"
         style="font-size:1.94028px;text-align:start;writing-mode:lr-tb;direction:ltr;text-anchor:start;stroke-width:0.264583"
         id="tspan3115">   in NY</tspan></text>
    <text
       xml:space="preserve"
       style="font-style:normal;font-weight:normal;font-size:1.94028px;line-height:1.25;font-family:sans-serif;text-align:start;writing-mode:lr-tb;direction:ltr;text-anchor:start;fill:#000000;fill-opacity:1;stroke:none;stroke-width:0.264583"
       x="15.967526"
       y="11.299918"
       id="text3107-2"><tspan
         sodipodi:role="line"
         x="15.967526"
         y="11.299918"
         style="font-size:1.94028px;text-align:start;writing-mode:lr-tb;direction:ltr;text-anchor:start;stroke-width:0.264583"
         id="tspan3115-7">HEARER</tspan><tspan
         sodipodi:role="line"
         x="15.967526"
         y="13.725268"
         style="font-size:1.94028px;text-align:start;writing-mode:lr-tb;direction:ltr;text-anchor:start;stroke-width:0.264583"
         id="tspan3160"> in NY</tspan></text>
    <text
       xml:space="preserve"
       style="font-style:normal;font-weight:normal;font-size:1.94028px;line-height:1.25;font-family:sans-serif;text-align:start;word-spacing:0px;writing-mode:lr-tb;direction:ltr;text-anchor:start;fill:#000000;fill-opacity:1;stroke:none;stroke-width:0.264583"
       x="9.8164291"
       y="21.791168"
       id="text3107-22"><tspan
         sodipodi:role="line"
         x="9.8164291"
         y="21.791168"
         style="font-size:1.94028px;text-align:start;writing-mode:lr-tb;direction:ltr;text-anchor:start;stroke-width:0.264583"
         id="tspan3109-9">OTHER</tspan><tspan
         sodipodi:role="line"
         x="9.8164291"
         y="24.216518"
         style="font-size:1.94028px;text-align:start;writing-mode:lr-tb;direction:ltr;text-anchor:start;stroke-width:0.264583"
         id="tspan3115-2"> in NY</tspan></text>
  </g>
</svg>
