<?xml version="1.0" encoding="UTF-8" standalone="no"?>
<svg
   xmlns:dc="http://purl.org/dc/elements/1.1/"
   xmlns:cc="http://creativecommons.org/ns#"
   xmlns:rdf="http://www.w3.org/1999/02/22-rdf-syntax-ns#"
   xmlns:svg="http://www.w3.org/2000/svg"
   xmlns="http://www.w3.org/2000/svg"
   version="1.1"
   id="svg2"
   xml:space="preserve"
   width="305.33334"
   height="305.33334"
   viewBox="0 0 305.33334 305.33334"><metadata
     id="metadata8"><rdf:RDF><cc:Work
         rdf:about=""><dc:format>image/svg+xml</dc:format><dc:type
           rdf:resource="http://purl.org/dc/dcmitype/StillImage" /></cc:Work></rdf:RDF></metadata><defs
     id="defs6" /><g
     id="g10"
     transform="matrix(1.3333333,0,0,-1.3333333,0,305.33333)"><g
       id="g12"
       transform="scale(0.1)"><path
         d="m 1708.52,1148.44 c 0,-313.131 -253.83,-566.96 -566.96,-566.96 -313.08,0 -566.912,253.829 -566.912,566.96 0,313.08 253.832,566.91 566.912,566.91 313.13,0 566.96,-253.83 566.96,-566.91 z"
         style="fill:none;stroke:#000000;stroke-width:8.50394;stroke-linecap:butt;stroke-linejoin:miter;stroke-miterlimit:4;stroke-dasharray:none;stroke-opacity:1"
         id="path14" /><path
         d="M 2275.43,1148.44 C 2275.43,522.23 1767.77,14.5703 1141.56,14.5703 515.352,14.5703 7.73047,522.23 7.73047,1148.44 c 0,626.21 507.62153,1133.83 1133.82953,1133.83 626.21,0 1133.87,-507.62 1133.87,-1133.83 z"
         style="fill:none;stroke:#000000;stroke-width:8.50394;stroke-linecap:butt;stroke-linejoin:miter;stroke-miterlimit:4;stroke-dasharray:none;stroke-opacity:1"
         id="path16" /><g
         id="g18"
         transform="scale(10)"><text
           transform="matrix(1,0,0,-1,108.976,147.729)"
           style="font-variant:normal;font-size:20px;font-family:f-0;-inkscape-font-specification:f-0-0;writing-mode:lr-tb;fill:#000000;fill-opacity:1;fill-rule:nonzero;stroke:none"
           id="text36"><tspan
             x="0"
             y="0"
             id="tspan20">I</tspan><tspan
             x="-44.334 -29.834 -22.014 -14.934"
             y="33.837101"
             id="tspan22">Here</tspan><tspan
             x="17.154301 30.8543 40.594299"
             y="33.680069"
             id="tspan24">Now</tspan><tspan
             x="-9.7523003 2.0876999 12.9477 18.467699"
             y="78.49337"
             id="tspan26">This</tspan><tspan
             x="-11.47808 -1.6581661 8.0818338"
             y="-44.008633"
             id="tspan28">You</tspan><tspan
             x="-102.77418 -90.934181 -80.074181 -72.254181 -65.174179 -57.354179"
             y="34.593369"
             id="tspan30">There </tspan><tspan
             x="-10.33158 1.50842 12.36842 20.54842"
             y="119.65117"
             id="tspan32">That</tspan><tspan
             x="71.355919 83.195923 94.055923 101.87592"
             y="35.389069"
             id="tspan34">Then</tspan></text></g></g></g></svg>
