<?xml version="1.0" encoding="UTF-8" standalone="no"?>
<svg
   xmlns:dc="http://purl.org/dc/elements/1.1/"
   xmlns:cc="http://creativecommons.org/ns#"
   xmlns:rdf="http://www.w3.org/1999/02/22-rdf-syntax-ns#"
   xmlns:svg="http://www.w3.org/2000/svg"
   xmlns="http://www.w3.org/2000/svg"
   version="1.1"
   id="svg2"
   xml:space="preserve"
   width="101.33333"
   height="101.33333"
   viewBox="0 0 101.33333 101.33333"><metadata
     id="metadata8"><rdf:RDF><cc:Work
         rdf:about=""><dc:format>image/svg+xml</dc:format><dc:type
           rdf:resource="http://purl.org/dc/dcmitype/StillImage" /></cc:Work></rdf:RDF></metadata><defs
     id="defs6" /><g
     id="g10"
     transform="matrix(1.3333333,0,0,-1.3333333,0,101.33333)"><g
       id="g12"
       transform="scale(0.1)"><path
         d="m 4.76953,5.23047 h 748.629 v 750 H 4.76953 Z"
         style="fill:#b9ffb9;fill-opacity:1;fill-rule:evenodd;stroke:none"
         id="path14" /><path
         d="m 4.76953,5.23047 h 748.629 v 750 H 4.76953 Z"
         style="fill:none;stroke:#000000;stroke-width:9.49912;stroke-linecap:butt;stroke-linejoin:miter;stroke-miterlimit:4;stroke-dasharray:none;stroke-opacity:1"
         id="path16" /><path
         d="M 378.91,613.398 C 320.391,674.77 221.48,693.91 145.469,654.059 59.1797,613.121 13.5195,505.621 43.9492,415.121 70.7383,323.48 169.73,261.449 263.871,277.23 c 44.289,5.579 84.219,28.282 114.57,60.071 -0.16,0.16 -0.32,0.32 -0.472,0.508 -0.739,0.781 -1.489,1.57 -2.231,2.39 -0.738,0.781 -1.437,1.602 -2.187,2.422 -0.699,0.82 -1.403,1.641 -2.102,2.457 -0.75,0.82 -1.41,1.641 -2.109,2.5 -0.711,0.82 -1.371,1.641 -2.07,2.5 -0.668,0.863 -1.329,1.723 -2,2.582 -0.661,0.86 -1.321,1.719 -1.989,2.57 -0.621,0.86 -1.293,1.758 -1.91,2.622 -0.633,0.898 -1.293,1.757 -1.883,2.66 -0.617,0.898 -1.25,1.789 -1.867,2.687 -0.59,0.903 -1.211,1.801 -1.801,2.699 -0.59,0.903 -1.172,1.832 -1.761,2.774 -0.579,0.898 -1.129,1.84 -1.719,2.738 -0.539,0.93 -1.09,1.871 -1.641,2.809 -0.539,0.941 -1.09,1.871 -1.64,2.812 -0.508,0.981 -1.047,1.918 -1.559,2.848 -0.512,0.98 -1.02,1.922 -1.52,2.891 -0.511,0.98 -0.98,1.921 -1.492,2.89 -0.468,0.981 -0.937,1.961 -1.398,2.93 -0.512,0.98 -0.942,1.961 -1.41,2.969 -0.469,0.98 -0.899,1.961 -1.328,2.972 -0.43,0.981 -0.864,1.989 -1.293,2.969 -0.43,1.02 -0.821,1.988 -1.25,3.012 -0.387,1.008 -0.778,2.027 -1.168,3.039 -0.391,1.019 -0.782,2.039 -1.129,3.051 -0.391,1.019 -0.742,2.027 -1.102,3.089 -0.39,1.008 -0.699,2.028 -1.051,3.079 -0.347,1.019 -0.66,2.07 -0.98,3.089 -0.348,1.051 -0.66,2.071 -0.969,3.121 -0.281,1.02 -0.59,2.071 -0.859,3.129 -0.281,1.051 -0.59,2.11 -0.821,3.161 -0.281,1.019 -0.55,2.07 -0.82,3.171 -0.238,1.047 -0.469,2.11 -0.75,3.161 -0.23,1.058 -0.43,2.109 -0.66,3.168 -0.23,1.05 -0.43,2.14 -0.621,3.199 -0.199,1.051 -0.399,2.152 -0.59,3.203 -0.199,1.058 -0.348,2.148 -0.508,3.207 -0.191,1.09 -0.351,2.141 -0.472,3.242 -0.149,1.051 -0.309,2.149 -0.43,3.238 -0.149,1.051 -0.27,2.153 -0.391,3.243 -0.109,1.058 -0.187,2.148 -0.308,3.199 -0.078,1.097 -0.2,2.187 -0.27,3.289 -0.082,1.051 -0.121,2.14 -0.199,3.238 -0.039,1.051 -0.121,2.152 -0.16,3.242 -0.031,1.09 -0.071,2.149 -0.11,3.239 0,1.101 -0.043,2.191 -0.043,3.281 0,0.512 0,0.98 0,1.488 0,1.094 0,2.192 0.043,3.281 0,1.051 0.039,2.153 0.079,3.243 0,1.097 0.07,2.187 0.109,3.238 0.043,1.101 0.121,2.191 0.199,3.281 0.082,1.059 0.152,2.149 0.231,3.25 0.082,1.051 0.203,2.149 0.281,3.238 0.109,1.051 0.23,2.153 0.351,3.243 0.11,1.058 0.27,2.148 0.387,3.238 0.152,1.058 0.313,2.148 0.473,3.211 0.148,1.051 0.308,2.148 0.5,3.199 0.16,1.09 0.359,2.148 0.551,3.238 0.199,1.063 0.386,2.114 0.589,3.172 0.231,1.09 0.43,2.141 0.661,3.199 0.238,1.051 0.468,2.11 0.699,3.2 0.277,1.062 0.508,2.113 0.789,3.171 0.269,1.008 0.539,2.071 0.82,3.122 0.27,1.058 0.539,2.109 0.86,3.128 0.269,1.051 0.582,2.11 0.89,3.161 0.32,1.019 0.629,2.07 0.981,3.089 0.308,1.051 0.66,2.071 1.019,3.079 0.352,1.062 0.699,2.07 1.09,3.089 0.352,1.012 0.699,2.032 1.09,3.051 0.39,1.012 0.789,2.031 1.18,3.039 0.39,1.024 0.82,2.032 1.21,3.051 0.43,0.981 0.821,1.992 1.25,3.012 0.43,0.969 0.891,1.949 1.321,2.969 0.469,0.968 0.898,1.949 1.371,2.929 0.469,1.012 0.937,1.992 1.406,2.961 0.473,0.981 0.973,1.961 1.442,2.891 0.511,0.98 1.019,1.961 1.531,2.898 0.5,0.973 1.008,1.91 1.558,2.852 0.512,0.969 1.051,1.91 1.563,2.847 0.547,0.942 1.098,1.872 1.637,2.813 0.589,0.937 1.14,1.879 1.722,2.769 0.547,0.942 1.129,1.84 1.719,2.782 0.59,0.898 1.172,1.828 1.801,2.726 0.578,0.903 1.211,1.801 1.789,2.703 0.629,0.899 1.25,1.789 1.879,2.649 0.621,0.898 1.293,1.762 1.91,2.66 0.672,0.859 1.293,1.719 1.961,2.621 0.66,0.859 1.32,1.68 1.988,2.539 0.703,0.86 1.371,1.711 2.07,2.539 0.661,0.852 1.372,1.672 2.071,2.531 0.703,0.821 1.41,1.641 2.109,2.469 0.703,0.821 1.442,1.641 2.152,2.422 0.739,0.82 1.481,1.598 2.219,2.418 0.629,0.699 1.289,1.41 1.961,2.109 z"
         style="fill:#ffffff;fill-opacity:1;fill-rule:evenodd;stroke:none"
         id="path18" /><path
         d="M 378.91,613.398 C 320.391,674.77 221.48,693.91 145.469,654.059 59.1797,613.121 13.5195,505.621 43.9492,415.121 70.7383,323.48 169.73,261.449 263.871,277.23 c 44.289,5.579 84.219,28.282 114.57,60.071 -0.16,0.16 -0.32,0.32 -0.472,0.508 -0.739,0.781 -1.489,1.57 -2.231,2.39 -0.738,0.781 -1.437,1.602 -2.187,2.422 -0.699,0.82 -1.403,1.641 -2.102,2.457 -0.75,0.82 -1.41,1.641 -2.109,2.5 -0.711,0.82 -1.371,1.641 -2.07,2.5 -0.668,0.863 -1.329,1.723 -2,2.582 -0.661,0.86 -1.321,1.719 -1.989,2.57 -0.621,0.86 -1.293,1.758 -1.91,2.622 -0.633,0.898 -1.293,1.757 -1.883,2.66 -0.617,0.898 -1.25,1.789 -1.867,2.687 -0.59,0.903 -1.211,1.801 -1.801,2.699 -0.59,0.903 -1.172,1.832 -1.761,2.774 -0.579,0.898 -1.129,1.84 -1.719,2.738 -0.539,0.93 -1.09,1.871 -1.641,2.809 -0.539,0.941 -1.09,1.871 -1.64,2.812 -0.508,0.981 -1.047,1.918 -1.559,2.848 -0.512,0.98 -1.02,1.922 -1.52,2.891 -0.511,0.98 -0.98,1.921 -1.492,2.89 -0.468,0.981 -0.937,1.961 -1.398,2.93 -0.512,0.98 -0.942,1.961 -1.41,2.969 -0.469,0.98 -0.899,1.961 -1.328,2.972 -0.43,0.981 -0.864,1.989 -1.293,2.969 -0.43,1.02 -0.821,1.988 -1.25,3.012 -0.387,1.008 -0.778,2.027 -1.168,3.039 -0.391,1.019 -0.782,2.039 -1.129,3.051 -0.391,1.019 -0.742,2.027 -1.102,3.089 -0.39,1.008 -0.699,2.028 -1.051,3.079 -0.347,1.019 -0.66,2.07 -0.98,3.089 -0.348,1.051 -0.66,2.071 -0.969,3.121 -0.281,1.02 -0.59,2.071 -0.859,3.129 -0.281,1.051 -0.59,2.11 -0.821,3.161 -0.281,1.019 -0.55,2.07 -0.82,3.171 -0.238,1.047 -0.469,2.11 -0.75,3.161 -0.23,1.058 -0.43,2.109 -0.66,3.168 -0.23,1.05 -0.43,2.14 -0.621,3.199 -0.199,1.051 -0.399,2.152 -0.59,3.203 -0.199,1.058 -0.348,2.148 -0.508,3.207 -0.191,1.09 -0.351,2.141 -0.472,3.242 -0.149,1.051 -0.309,2.149 -0.43,3.238 -0.149,1.051 -0.27,2.153 -0.391,3.243 -0.109,1.058 -0.187,2.148 -0.308,3.199 -0.078,1.097 -0.2,2.187 -0.27,3.289 -0.082,1.051 -0.121,2.14 -0.199,3.238 -0.039,1.051 -0.121,2.152 -0.16,3.242 -0.031,1.09 -0.071,2.149 -0.11,3.239 0,1.101 -0.043,2.191 -0.043,3.281 0,0.512 0,0.98 0,1.488 0,1.094 0,2.192 0.043,3.281 0,1.051 0.039,2.153 0.079,3.243 0,1.097 0.07,2.187 0.109,3.238 0.043,1.101 0.121,2.191 0.199,3.281 0.082,1.059 0.152,2.149 0.231,3.25 0.082,1.051 0.203,2.149 0.281,3.238 0.109,1.051 0.23,2.153 0.351,3.243 0.11,1.058 0.27,2.148 0.387,3.238 0.152,1.058 0.313,2.148 0.473,3.211 0.148,1.051 0.308,2.148 0.5,3.199 0.16,1.09 0.359,2.148 0.551,3.238 0.199,1.063 0.386,2.114 0.589,3.172 0.231,1.09 0.43,2.141 0.661,3.199 0.238,1.051 0.468,2.11 0.699,3.2 0.277,1.062 0.508,2.113 0.789,3.171 0.269,1.008 0.539,2.071 0.82,3.122 0.27,1.058 0.539,2.109 0.86,3.128 0.269,1.051 0.582,2.11 0.89,3.161 0.32,1.019 0.629,2.07 0.981,3.089 0.308,1.051 0.66,2.071 1.019,3.079 0.352,1.062 0.699,2.07 1.09,3.089 0.352,1.012 0.699,2.032 1.09,3.051 0.39,1.012 0.789,2.031 1.18,3.039 0.39,1.024 0.82,2.032 1.21,3.051 0.43,0.981 0.821,1.992 1.25,3.012 0.43,0.969 0.891,1.949 1.321,2.969 0.469,0.968 0.898,1.949 1.371,2.929 0.469,1.012 0.937,1.992 1.406,2.961 0.473,0.981 0.973,1.961 1.442,2.891 0.511,0.98 1.019,1.961 1.531,2.898 0.5,0.973 1.008,1.91 1.558,2.852 0.512,0.969 1.051,1.91 1.563,2.847 0.547,0.942 1.098,1.872 1.637,2.813 0.589,0.937 1.14,1.879 1.722,2.769 0.547,0.942 1.129,1.84 1.719,2.782 0.59,0.898 1.172,1.828 1.801,2.726 0.578,0.903 1.211,1.801 1.789,2.703 0.629,0.899 1.25,1.789 1.879,2.649 0.621,0.898 1.293,1.762 1.91,2.66 0.672,0.859 1.293,1.719 1.961,2.621 0.66,0.859 1.32,1.68 1.988,2.539 0.703,0.86 1.371,1.711 2.07,2.539 0.661,0.852 1.372,1.672 2.071,2.531 0.703,0.821 1.41,1.641 2.109,2.469 0.703,0.821 1.442,1.641 2.152,2.422 0.739,0.82 1.481,1.598 2.219,2.418 0.629,0.699 1.289,1.41 1.961,2.109 z"
         style="fill:none;stroke:#000000;stroke-width:8.50395;stroke-linecap:butt;stroke-linejoin:miter;stroke-miterlimit:4;stroke-dasharray:none;stroke-opacity:1"
         id="path20" /><path
         d="m 378.91,613.398 c -0.672,-0.699 -1.332,-1.41 -2,-2.109 -0.699,-0.82 -1.441,-1.598 -2.18,-2.418 -0.71,-0.781 -1.449,-1.601 -2.152,-2.422 -0.699,-0.828 -1.406,-1.648 -2.109,-2.5 -0.699,-0.828 -1.41,-1.648 -2.11,-2.5 -0.66,-0.828 -1.328,-1.679 -2.031,-2.539 -0.668,-0.859 -1.328,-1.68 -1.988,-2.539 -0.668,-0.902 -1.289,-1.762 -1.961,-2.621 -0.617,-0.898 -1.289,-1.762 -1.91,-2.66 -0.629,-0.86 -1.25,-1.75 -1.879,-2.649 -0.578,-0.902 -1.211,-1.8 -1.789,-2.703 -0.629,-0.937 -1.211,-1.828 -1.801,-2.726 -0.59,-0.942 -1.172,-1.84 -1.719,-2.782 -0.582,-0.89 -1.133,-1.832 -1.722,-2.769 -0.539,-0.941 -1.09,-1.871 -1.637,-2.813 -0.512,-0.937 -1.051,-1.878 -1.602,-2.847 -0.511,-0.942 -1.019,-1.879 -1.519,-2.852 -0.512,-0.937 -1.02,-1.918 -1.531,-2.898 -0.469,-0.93 -0.969,-1.91 -1.442,-2.891 -0.469,-0.969 -0.937,-1.949 -1.406,-2.961 -0.473,-0.98 -0.902,-1.961 -1.371,-2.929 -0.43,-1.02 -0.891,-2 -1.321,-3.008 -0.429,-0.981 -0.82,-1.992 -1.25,-2.973 -0.39,-1.019 -0.82,-2.027 -1.21,-3.051 -0.391,-1.008 -0.79,-2.027 -1.18,-3.039 -0.391,-1.019 -0.738,-2.039 -1.129,-3.051 -0.352,-1.019 -0.699,-2.027 -1.051,-3.089 -0.359,-1.008 -0.711,-2.028 -1.019,-3.079 -0.352,-1.019 -0.661,-2.07 -0.981,-3.089 -0.308,-1.051 -0.621,-2.11 -0.89,-3.161 -0.321,-1.019 -0.59,-2.07 -0.86,-3.128 -0.281,-1.051 -0.551,-2.114 -0.82,-3.122 -0.281,-1.058 -0.512,-2.109 -0.789,-3.21 -0.231,-1.051 -0.461,-2.11 -0.699,-3.161 -0.231,-1.058 -0.43,-2.109 -0.661,-3.199 -0.203,-1.058 -0.39,-2.109 -0.589,-3.172 -0.192,-1.09 -0.391,-2.148 -0.551,-3.238 -0.192,-1.051 -0.352,-2.148 -0.5,-3.199 -0.16,-1.063 -0.321,-2.153 -0.473,-3.25 -0.117,-1.051 -0.277,-2.141 -0.387,-3.199 -0.121,-1.09 -0.242,-2.192 -0.351,-3.243 -0.078,-1.089 -0.199,-2.187 -0.281,-3.238 -0.079,-1.101 -0.149,-2.191 -0.231,-3.25 -0.078,-1.09 -0.156,-2.18 -0.199,-3.281 -0.039,-1.051 -0.109,-2.141 -0.109,-3.238 -0.04,-1.09 -0.079,-2.192 -0.079,-3.282 -0.043,-1.05 -0.043,-2.148 -0.043,-3.242 0,-0.508 0,-0.976 0,-1.488 0,-1.09 0.043,-2.18 0.043,-3.281 0.039,-1.09 0.079,-2.149 0.11,-3.239 0.039,-1.09 0.121,-2.191 0.16,-3.281 0.078,-1.059 0.117,-2.148 0.199,-3.199 0.07,-1.102 0.192,-2.192 0.27,-3.289 0.121,-1.051 0.199,-2.141 0.308,-3.199 0.121,-1.09 0.242,-2.192 0.391,-3.243 0.121,-1.089 0.281,-2.187 0.43,-3.238 0.121,-1.101 0.281,-2.152 0.472,-3.242 0.16,-1.059 0.309,-2.149 0.508,-3.207 0.191,-1.051 0.391,-2.152 0.59,-3.203 0.191,-1.059 0.391,-2.149 0.621,-3.199 0.23,-1.059 0.43,-2.11 0.66,-3.168 0.281,-1.051 0.512,-2.114 0.75,-3.161 0.27,-1.101 0.539,-2.152 0.781,-3.171 0.27,-1.051 0.579,-2.11 0.86,-3.161 0.269,-1.058 0.578,-2.109 0.859,-3.129 0.309,-1.05 0.621,-2.07 0.969,-3.121 0.32,-1.019 0.633,-2.07 0.98,-3.089 0.352,-1.051 0.661,-2.071 1.02,-3.079 0.391,-1.062 0.742,-2.07 1.133,-3.089 0.347,-1.012 0.738,-2.032 1.09,-3.051 0.429,-1.012 0.82,-2.031 1.207,-3.039 0.429,-1.024 0.82,-1.992 1.25,-3.012 0.429,-0.98 0.863,-1.988 1.293,-2.969 0.429,-1.011 0.859,-1.992 1.328,-2.972 0.468,-1.008 0.898,-1.989 1.371,-2.969 0.5,-0.969 0.969,-1.949 1.437,-2.93 0.512,-0.969 0.981,-1.91 1.492,-2.89 0.5,-0.969 1.008,-1.911 1.52,-2.891 0.512,-0.93 1.051,-1.867 1.559,-2.848 0.55,-0.941 1.101,-1.871 1.64,-2.812 0.551,-0.938 1.102,-1.879 1.641,-2.809 0.59,-0.898 1.14,-1.84 1.719,-2.738 0.589,-0.942 1.171,-1.871 1.761,-2.774 0.59,-0.898 1.211,-1.796 1.801,-2.699 0.617,-0.898 1.25,-1.789 1.828,-2.687 0.629,-0.903 1.289,-1.762 1.922,-2.66 0.617,-0.864 1.289,-1.762 1.91,-2.622 0.668,-0.851 1.328,-1.71 1.989,-2.57 0.671,-0.859 1.332,-1.719 2,-2.582 0.699,-0.859 1.359,-1.68 2.07,-2.5 0.699,-0.859 1.359,-1.68 2.07,-2.5 0.738,-0.816 1.442,-1.637 2.141,-2.457 0.75,-0.82 1.449,-1.641 2.187,-2.422 0.742,-0.82 1.492,-1.609 2.231,-2.39 0.152,-0.188 0.312,-0.348 0.472,-0.508 35.149,36.84 57.34,86.097 56.289,137.777 0.071,41.442 -13.171,82.731 -37.351,116.402 -5.43,7.93 -11.91,15 -18.469,21.918 z"
         style="fill:#ffffff;fill-opacity:1;fill-rule:evenodd;stroke:none"
         id="path22" /><path
         d="m 378.91,613.398 c -0.672,-0.699 -1.332,-1.41 -2,-2.109 -0.699,-0.82 -1.441,-1.598 -2.18,-2.418 -0.71,-0.781 -1.449,-1.601 -2.152,-2.422 -0.699,-0.828 -1.406,-1.648 -2.109,-2.5 -0.699,-0.828 -1.41,-1.648 -2.11,-2.5 -0.66,-0.828 -1.328,-1.679 -2.031,-2.539 -0.668,-0.859 -1.328,-1.68 -1.988,-2.539 -0.668,-0.902 -1.289,-1.762 -1.961,-2.621 -0.617,-0.898 -1.289,-1.762 -1.91,-2.66 -0.629,-0.86 -1.25,-1.75 -1.879,-2.649 -0.578,-0.902 -1.211,-1.8 -1.789,-2.703 -0.629,-0.937 -1.211,-1.828 -1.801,-2.726 -0.59,-0.942 -1.172,-1.84 -1.719,-2.782 -0.582,-0.89 -1.133,-1.832 -1.722,-2.769 -0.539,-0.941 -1.09,-1.871 -1.637,-2.813 -0.512,-0.937 -1.051,-1.878 -1.602,-2.847 -0.511,-0.942 -1.019,-1.879 -1.519,-2.852 -0.512,-0.937 -1.02,-1.918 -1.531,-2.898 -0.469,-0.93 -0.969,-1.91 -1.442,-2.891 -0.469,-0.969 -0.937,-1.949 -1.406,-2.961 -0.473,-0.98 -0.902,-1.961 -1.371,-2.929 -0.43,-1.02 -0.891,-2 -1.321,-3.008 -0.429,-0.981 -0.82,-1.992 -1.25,-2.973 -0.39,-1.019 -0.82,-2.027 -1.21,-3.051 -0.391,-1.008 -0.79,-2.027 -1.18,-3.039 -0.391,-1.019 -0.738,-2.039 -1.129,-3.051 -0.352,-1.019 -0.699,-2.027 -1.051,-3.089 -0.359,-1.008 -0.711,-2.028 -1.019,-3.079 -0.352,-1.019 -0.661,-2.07 -0.981,-3.089 -0.308,-1.051 -0.621,-2.11 -0.89,-3.161 -0.321,-1.019 -0.59,-2.07 -0.86,-3.128 -0.281,-1.051 -0.551,-2.114 -0.82,-3.122 -0.281,-1.058 -0.512,-2.109 -0.789,-3.21 -0.231,-1.051 -0.461,-2.11 -0.699,-3.161 -0.231,-1.058 -0.43,-2.109 -0.661,-3.199 -0.203,-1.058 -0.39,-2.109 -0.589,-3.172 -0.192,-1.09 -0.391,-2.148 -0.551,-3.238 -0.192,-1.051 -0.352,-2.148 -0.5,-3.199 -0.16,-1.063 -0.321,-2.153 -0.473,-3.25 -0.117,-1.051 -0.277,-2.141 -0.387,-3.199 -0.121,-1.09 -0.242,-2.192 -0.351,-3.243 -0.078,-1.089 -0.199,-2.187 -0.281,-3.238 -0.079,-1.101 -0.149,-2.191 -0.231,-3.25 -0.078,-1.09 -0.156,-2.18 -0.199,-3.281 -0.039,-1.051 -0.109,-2.141 -0.109,-3.238 -0.04,-1.09 -0.079,-2.192 -0.079,-3.282 -0.043,-1.05 -0.043,-2.148 -0.043,-3.242 0,-0.508 0,-0.976 0,-1.488 0,-1.09 0.043,-2.18 0.043,-3.281 0.039,-1.09 0.079,-2.149 0.11,-3.239 0.039,-1.09 0.121,-2.191 0.16,-3.281 0.078,-1.059 0.117,-2.148 0.199,-3.199 0.07,-1.102 0.192,-2.192 0.27,-3.289 0.121,-1.051 0.199,-2.141 0.308,-3.199 0.121,-1.09 0.242,-2.192 0.391,-3.243 0.121,-1.089 0.281,-2.187 0.43,-3.238 0.121,-1.101 0.281,-2.152 0.472,-3.242 0.16,-1.059 0.309,-2.149 0.508,-3.207 0.191,-1.051 0.391,-2.152 0.59,-3.203 0.191,-1.059 0.391,-2.149 0.621,-3.199 0.23,-1.059 0.43,-2.11 0.66,-3.168 0.281,-1.051 0.512,-2.114 0.75,-3.161 0.27,-1.101 0.539,-2.152 0.781,-3.171 0.27,-1.051 0.579,-2.11 0.86,-3.161 0.269,-1.058 0.578,-2.109 0.859,-3.129 0.309,-1.05 0.621,-2.07 0.969,-3.121 0.32,-1.019 0.633,-2.07 0.98,-3.089 0.352,-1.051 0.661,-2.071 1.02,-3.079 0.391,-1.062 0.742,-2.07 1.133,-3.089 0.347,-1.012 0.738,-2.032 1.09,-3.051 0.429,-1.012 0.82,-2.031 1.207,-3.039 0.429,-1.024 0.82,-1.992 1.25,-3.012 0.429,-0.98 0.863,-1.988 1.293,-2.969 0.429,-1.011 0.859,-1.992 1.328,-2.972 0.468,-1.008 0.898,-1.989 1.371,-2.969 0.5,-0.969 0.969,-1.949 1.437,-2.93 0.512,-0.969 0.981,-1.91 1.492,-2.89 0.5,-0.969 1.008,-1.911 1.52,-2.891 0.512,-0.93 1.051,-1.867 1.559,-2.848 0.55,-0.941 1.101,-1.871 1.64,-2.812 0.551,-0.938 1.102,-1.879 1.641,-2.809 0.59,-0.898 1.14,-1.84 1.719,-2.738 0.589,-0.942 1.171,-1.871 1.761,-2.774 0.59,-0.898 1.211,-1.796 1.801,-2.699 0.617,-0.898 1.25,-1.789 1.828,-2.687 0.629,-0.903 1.289,-1.762 1.922,-2.66 0.617,-0.864 1.289,-1.762 1.91,-2.622 0.668,-0.851 1.328,-1.71 1.989,-2.57 0.671,-0.859 1.332,-1.719 2,-2.582 0.699,-0.859 1.359,-1.68 2.07,-2.5 0.699,-0.859 1.359,-1.68 2.07,-2.5 0.738,-0.816 1.442,-1.637 2.141,-2.457 0.75,-0.82 1.449,-1.641 2.187,-2.422 0.742,-0.82 1.492,-1.609 2.231,-2.39 0.152,-0.188 0.312,-0.348 0.472,-0.508 35.149,36.84 57.34,86.097 56.289,137.777 0.071,41.442 -13.171,82.731 -37.351,116.402 -5.43,7.93 -11.91,15 -18.469,21.918 z"
         style="fill:none;stroke:#000000;stroke-width:8.50395;stroke-linecap:butt;stroke-linejoin:miter;stroke-miterlimit:4;stroke-dasharray:none;stroke-opacity:1"
         id="path24" /><path
         d="m 521.879,675.078 c -53.867,-0.387 -105.277,-22.5 -142.617,-61.328 6.597,-6.91 12.687,-14.34 18.117,-22.27 24.18,-33.671 37.422,-74.96 37.351,-116.402 1.051,-51.68 -20.71,-101.367 -55.859,-138.199 37.688,-39.457 89.918,-61.801 144.527,-61.801 53.051,0 103.903,21.094 141.403,58.594 37.5,37.5 58.597,88.359 58.597,141.406 0,53.043 -21.097,103.902 -58.597,141.442 -37.5,37.5 -88.352,58.558 -141.403,58.558 -0.507,0 -1.019,0 -1.519,0 z"
         style="fill:none;stroke:#000000;stroke-width:8.50395;stroke-linecap:butt;stroke-linejoin:miter;stroke-miterlimit:4;stroke-dasharray:none;stroke-opacity:1"
         id="path26" /><path
         d="m 378.871,336.879 c 0.738,-0.789 1.481,-1.57 2.258,-2.348 0.75,-0.781 1.531,-1.519 2.312,-2.301 0.778,-0.75 1.559,-1.531 2.34,-2.269 0.778,-0.742 1.559,-1.481 2.379,-2.191 0.789,-0.739 1.61,-1.481 2.43,-2.18 0.781,-0.75 1.601,-1.449 2.461,-2.149 0.82,-0.742 1.64,-1.41 2.461,-2.113 0.816,-0.707 1.679,-1.406 2.5,-2.066 0.859,-0.672 1.718,-1.371 2.578,-2.032 0.859,-0.671 1.711,-1.332 2.57,-1.96 0.86,-0.661 1.762,-1.321 2.621,-1.95 0.899,-0.621 1.758,-1.25 2.66,-1.871 0.899,-0.629 1.789,-1.25 2.688,-1.879 0.902,-0.59 1.801,-1.211 2.699,-1.8 0.902,-0.579 1.832,-1.168 2.731,-1.75 0.941,-0.59 1.839,-1.141 2.781,-1.719 0.93,-0.551 1.871,-1.141 2.808,-1.68 0.942,-0.551 1.872,-1.101 2.813,-1.641 0.937,-0.511 1.879,-1.058 2.848,-1.57 0.941,-0.5 1.921,-1.012 2.851,-1.519 0.981,-0.512 1.961,-1.012 2.93,-1.481 0.941,-0.512 1.922,-0.98 2.89,-1.449 0.981,-0.473 1.961,-0.941 2.969,-1.41 0.981,-0.43 1.961,-0.891 2.973,-1.321 0.976,-0.429 1.988,-0.859 2.969,-1.289 1.019,-0.429 1.988,-0.863 3.007,-1.25 1.012,-0.429 2.032,-0.82 3.051,-1.211 1.012,-0.39 2.031,-0.781 3.039,-1.14 1.024,-0.391 2.032,-0.738 3.051,-1.09 1.012,-0.352 2.07,-0.699 3.082,-1.051 1.059,-0.359 2.078,-0.668 3.09,-0.98 1.059,-0.348 2.109,-0.668 3.129,-0.981 1.051,-0.308 2.109,-0.578 3.121,-0.898 1.059,-0.27 2.109,-0.539 3.16,-0.82 1.059,-0.27 2.109,-0.54 3.168,-0.821 1.051,-0.23 2.109,-0.469 3.16,-0.699 1.063,-0.23 2.11,-0.469 3.172,-0.699 1.09,-0.242 2.149,-0.43 3.199,-0.672 1.09,-0.188 2.149,-0.391 3.2,-0.578 1.101,-0.16 2.152,-0.352 3.21,-0.512 1.09,-0.16 2.149,-0.309 3.239,-0.469 1.051,-0.16 2.152,-0.308 3.203,-0.429 1.098,-0.161 2.187,-0.27 3.238,-0.391 1.102,-0.121 2.192,-0.23 3.289,-0.309 1.051,-0.121 2.141,-0.203 3.199,-0.281 1.09,-0.07 2.192,-0.148 3.282,-0.23 1.05,-0.078 2.148,-0.121 3.242,-0.16 1.098,-0.04 2.148,-0.071 3.238,-0.11 1.102,0 2.192,-0.039 3.25,-0.039 0.66,0 1.32,-0.043 1.988,-0.043 1.09,0 2.153,0.043 3.243,0.043 1.089,0.039 2.187,0.039 3.281,0.078 1.058,0.031 2.148,0.071 3.238,0.11 1.102,0.082 2.149,0.121 3.25,0.203 1.09,0.078 2.141,0.148 3.238,0.226 1.09,0.121 2.192,0.203 3.243,0.313 1.089,0.121 2.187,0.238 3.238,0.359 1.101,0.11 2.152,0.231 3.25,0.391 1.09,0.109 2.141,0.269 3.199,0.429 1.094,0.149 2.152,0.348 3.242,0.5 1.059,0.2 2.149,0.36 3.2,0.551 1.058,0.199 2.152,0.391 3.21,0.629 1.051,0.192 2.11,0.43 3.2,0.66 1.05,0.231 2.109,0.469 3.16,0.7 1.058,0.242 2.109,0.511 3.172,0.75 0.468,0.109 0.968,0.269 1.437,0.39 -5.929,25.352 -16.25,49.719 -31.48,70.891 -26.598,38.828 -67.739,65.199 -112.66,76.84 -2.34,-9.762 -4.84,-19.493 -8.668,-28.711 -4.879,-11.758 -10.86,-23.051 -17.813,-33.711 -6.988,-10.629 -14.918,-20.629 -23.707,-29.84 z"
         style="fill:#ffffff;fill-opacity:1;fill-rule:evenodd;stroke:none"
         id="path28" /><path
         d="m 378.871,336.879 c 0.738,-0.789 1.481,-1.57 2.258,-2.348 0.75,-0.781 1.531,-1.519 2.312,-2.301 0.778,-0.75 1.559,-1.531 2.34,-2.269 0.778,-0.742 1.559,-1.481 2.379,-2.191 0.789,-0.739 1.61,-1.481 2.43,-2.18 0.781,-0.75 1.601,-1.449 2.461,-2.149 0.82,-0.742 1.64,-1.41 2.461,-2.113 0.816,-0.707 1.679,-1.406 2.5,-2.066 0.859,-0.672 1.718,-1.371 2.578,-2.032 0.859,-0.671 1.711,-1.332 2.57,-1.96 0.86,-0.661 1.762,-1.321 2.621,-1.95 0.899,-0.621 1.758,-1.25 2.66,-1.871 0.899,-0.629 1.789,-1.25 2.688,-1.879 0.902,-0.59 1.801,-1.211 2.699,-1.8 0.902,-0.579 1.832,-1.168 2.731,-1.75 0.941,-0.59 1.839,-1.141 2.781,-1.719 0.93,-0.551 1.871,-1.141 2.808,-1.68 0.942,-0.551 1.872,-1.101 2.813,-1.641 0.937,-0.511 1.879,-1.058 2.848,-1.57 0.941,-0.5 1.921,-1.012 2.851,-1.519 0.981,-0.512 1.961,-1.012 2.93,-1.481 0.941,-0.512 1.922,-0.98 2.89,-1.449 0.981,-0.473 1.961,-0.941 2.969,-1.41 0.981,-0.43 1.961,-0.891 2.973,-1.321 0.976,-0.429 1.988,-0.859 2.969,-1.289 1.019,-0.429 1.988,-0.863 3.007,-1.25 1.012,-0.429 2.032,-0.82 3.051,-1.211 1.012,-0.39 2.031,-0.781 3.039,-1.14 1.024,-0.391 2.032,-0.738 3.051,-1.09 1.012,-0.352 2.07,-0.699 3.082,-1.051 1.059,-0.359 2.078,-0.668 3.09,-0.98 1.059,-0.348 2.109,-0.668 3.129,-0.981 1.051,-0.308 2.109,-0.578 3.121,-0.898 1.059,-0.27 2.109,-0.539 3.16,-0.82 1.059,-0.27 2.109,-0.54 3.168,-0.821 1.051,-0.23 2.109,-0.469 3.16,-0.699 1.063,-0.23 2.11,-0.469 3.172,-0.699 1.09,-0.242 2.149,-0.43 3.199,-0.672 1.09,-0.188 2.149,-0.391 3.2,-0.578 1.101,-0.16 2.152,-0.352 3.21,-0.512 1.09,-0.16 2.149,-0.309 3.239,-0.469 1.051,-0.16 2.152,-0.308 3.203,-0.429 1.098,-0.161 2.187,-0.27 3.238,-0.391 1.102,-0.121 2.192,-0.23 3.289,-0.309 1.051,-0.121 2.141,-0.203 3.199,-0.281 1.09,-0.07 2.192,-0.148 3.282,-0.23 1.05,-0.078 2.148,-0.121 3.242,-0.16 1.098,-0.04 2.148,-0.071 3.238,-0.11 1.102,0 2.192,-0.039 3.25,-0.039 0.66,0 1.32,-0.043 1.988,-0.043 1.09,0 2.153,0.043 3.243,0.043 1.089,0.039 2.187,0.039 3.281,0.078 1.058,0.031 2.148,0.071 3.238,0.11 1.102,0.082 2.149,0.121 3.25,0.203 1.09,0.078 2.141,0.148 3.238,0.226 1.09,0.121 2.192,0.203 3.243,0.313 1.089,0.121 2.187,0.238 3.238,0.359 1.101,0.11 2.152,0.231 3.25,0.391 1.09,0.109 2.141,0.269 3.199,0.429 1.094,0.149 2.152,0.348 3.242,0.5 1.059,0.2 2.149,0.36 3.2,0.551 1.058,0.199 2.152,0.391 3.21,0.629 1.051,0.192 2.11,0.43 3.2,0.66 1.05,0.231 2.109,0.469 3.16,0.7 1.058,0.242 2.109,0.511 3.172,0.75 0.468,0.109 0.968,0.269 1.437,0.39 -5.929,25.352 -16.25,49.719 -31.48,70.891 -26.598,38.828 -67.739,65.199 -112.66,76.84 -2.34,-9.762 -4.84,-19.493 -8.668,-28.711 -4.879,-11.758 -10.86,-23.051 -17.813,-33.711 -6.988,-10.629 -14.918,-20.629 -23.707,-29.84 z"
         style="fill:none;stroke:#000000;stroke-width:8.50395;stroke-linecap:butt;stroke-linejoin:miter;stroke-miterlimit:4;stroke-dasharray:none;stroke-opacity:1"
         id="path30" /><path
         d="m 378.871,336.879 c 8.789,9.211 16.719,19.211 23.707,29.84 6.953,10.66 12.934,21.953 17.813,33.711 3.828,9.218 6.328,18.949 8.668,28.711 -32.809,8.437 -67.539,8.629 -100.348,0.199 0.16,-0.75 0.348,-1.449 0.508,-2.149 0.269,-1.062 0.551,-2.113 0.82,-3.171 0.27,-1.051 0.551,-2.11 0.859,-3.161 0.274,-1.019 0.582,-2.07 0.903,-3.129 0.308,-1.011 0.621,-2.07 0.969,-3.082 0.32,-1.058 0.671,-2.07 0.98,-3.128 0.352,-1.008 0.699,-2.032 1.051,-3.079 0.398,-1.019 0.75,-2.031 1.14,-3.05 0.387,-1.012 0.739,-2.032 1.129,-3.051 0.43,-1.012 0.821,-2.031 1.25,-3 0.391,-1.02 0.821,-2.039 1.25,-3.012 0.43,-1.019 0.86,-1.988 1.289,-3.008 0.469,-0.98 0.903,-1.949 1.371,-2.929 0.469,-1.012 0.93,-1.993 1.399,-2.969 0.473,-0.973 0.941,-1.953 1.449,-2.891 0.512,-0.98 0.973,-1.953 1.524,-2.89 0.468,-0.981 1.019,-1.911 1.519,-2.891 0.508,-0.941 1.059,-1.871 1.609,-2.852 0.54,-0.937 1.09,-1.878 1.641,-2.808 0.539,-0.899 1.09,-1.84 1.68,-2.781 0.539,-0.899 1.129,-1.829 1.719,-2.77 0.582,-0.898 1.171,-1.801 1.75,-2.699 0.628,-0.93 1.21,-1.828 1.839,-2.692 0.621,-0.898 1.25,-1.796 1.871,-2.699 0.629,-0.898 1.25,-1.75 1.879,-2.648 0.661,-0.86 1.289,-1.723 1.95,-2.582 0.671,-0.86 1.332,-1.719 1.992,-2.578 0.668,-0.86 1.371,-1.719 2.039,-2.582 0.699,-0.821 1.359,-1.68 2.07,-2.5 0.699,-0.821 1.399,-1.637 2.11,-2.457 0.699,-0.821 1.441,-1.641 2.14,-2.461 0.75,-0.821 1.488,-1.602 2.231,-2.422 0.699,-0.778 1.449,-1.559 2.23,-2.34 z"
         style="fill:#ffffff;fill-opacity:1;fill-rule:evenodd;stroke:none"
         id="path32" /><path
         d="m 378.871,336.879 c 8.789,9.211 16.719,19.211 23.707,29.84 6.953,10.66 12.934,21.953 17.813,33.711 3.828,9.218 6.328,18.949 8.668,28.711 -32.809,8.437 -67.539,8.629 -100.348,0.199 0.16,-0.75 0.348,-1.449 0.508,-2.149 0.269,-1.062 0.551,-2.113 0.82,-3.171 0.27,-1.051 0.551,-2.11 0.859,-3.161 0.274,-1.019 0.582,-2.07 0.903,-3.129 0.308,-1.011 0.621,-2.07 0.969,-3.082 0.32,-1.058 0.671,-2.07 0.98,-3.128 0.352,-1.008 0.699,-2.032 1.051,-3.079 0.398,-1.019 0.75,-2.031 1.14,-3.05 0.387,-1.012 0.739,-2.032 1.129,-3.051 0.43,-1.012 0.821,-2.031 1.25,-3 0.391,-1.02 0.821,-2.039 1.25,-3.012 0.43,-1.019 0.86,-1.988 1.289,-3.008 0.469,-0.98 0.903,-1.949 1.371,-2.929 0.469,-1.012 0.93,-1.993 1.399,-2.969 0.473,-0.973 0.941,-1.953 1.449,-2.891 0.512,-0.98 0.973,-1.953 1.524,-2.89 0.468,-0.981 1.019,-1.911 1.519,-2.891 0.508,-0.941 1.059,-1.871 1.609,-2.852 0.54,-0.937 1.09,-1.878 1.641,-2.808 0.539,-0.899 1.09,-1.84 1.68,-2.781 0.539,-0.899 1.129,-1.829 1.719,-2.77 0.582,-0.898 1.171,-1.801 1.75,-2.699 0.628,-0.93 1.21,-1.828 1.839,-2.692 0.621,-0.898 1.25,-1.796 1.871,-2.699 0.629,-0.898 1.25,-1.75 1.879,-2.648 0.661,-0.86 1.289,-1.723 1.95,-2.582 0.671,-0.86 1.332,-1.719 1.992,-2.578 0.668,-0.86 1.371,-1.719 2.039,-2.582 0.699,-0.821 1.359,-1.68 2.07,-2.5 0.699,-0.821 1.399,-1.637 2.11,-2.457 0.699,-0.821 1.441,-1.641 2.14,-2.461 0.75,-0.821 1.488,-1.602 2.231,-2.422 0.699,-0.778 1.449,-1.559 2.23,-2.34 z"
         style="fill:none;stroke:#000000;stroke-width:8.50395;stroke-linecap:butt;stroke-linejoin:miter;stroke-miterlimit:4;stroke-dasharray:none;stroke-opacity:1"
         id="path34" /><path
         d="M 184.73,281.988 C 176.25,247.23 176.719,210.391 188.281,175.98 215.078,84.3398 314.059,22.3008 408.199,38.0898 c 95.59,12.0704 172.821,101.5192 170.86,197.8512 0.043,15.348 -2.34,30.539 -5.86,45.469 -0.469,-0.121 -0.969,-0.281 -1.437,-0.39 -1.063,-0.239 -2.114,-0.508 -3.172,-0.75 -1.051,-0.231 -2.11,-0.469 -3.16,-0.7 -1.09,-0.23 -2.149,-0.468 -3.2,-0.66 -1.058,-0.238 -2.152,-0.43 -3.21,-0.629 -1.051,-0.191 -2.141,-0.351 -3.2,-0.551 -1.09,-0.152 -2.148,-0.351 -3.242,-0.5 -1.058,-0.16 -2.109,-0.32 -3.199,-0.429 -1.098,-0.16 -2.149,-0.281 -3.25,-0.391 -1.051,-0.121 -2.149,-0.238 -3.238,-0.359 -1.051,-0.11 -2.153,-0.192 -3.243,-0.313 -1.097,-0.078 -2.148,-0.148 -3.238,-0.226 -1.101,-0.082 -2.148,-0.121 -3.25,-0.203 -1.09,-0.039 -2.18,-0.079 -3.238,-0.11 -1.094,-0.039 -2.192,-0.039 -3.281,-0.078 -1.09,0 -2.153,-0.043 -3.243,-0.043 -0.668,0 -1.328,0.043 -1.988,0.043 -1.058,0 -2.148,0.039 -3.25,0.039 -1.09,0.039 -2.14,0.07 -3.238,0.11 -1.094,0.039 -2.192,0.082 -3.242,0.16 -1.09,0.082 -2.192,0.16 -3.282,0.23 -1.058,0.078 -2.148,0.16 -3.199,0.281 -1.097,0.079 -2.187,0.188 -3.289,0.309 -1.051,0.121 -2.14,0.23 -3.238,0.391 -1.051,0.121 -2.152,0.269 -3.203,0.429 -1.09,0.16 -2.149,0.309 -3.239,0.469 -1.058,0.16 -2.109,0.352 -3.21,0.551 -1.051,0.148 -2.11,0.351 -3.2,0.582 -1.05,0.199 -2.109,0.387 -3.199,0.629 -1.062,0.23 -2.109,0.469 -3.172,0.699 -1.051,0.23 -2.109,0.469 -3.16,0.699 -1.059,0.281 -2.109,0.551 -3.168,0.821 -1.051,0.281 -2.101,0.55 -3.16,0.82 -1.012,0.32 -2.07,0.59 -3.121,0.898 -1.02,0.313 -2.07,0.633 -3.129,0.981 -1.012,0.312 -2.031,0.621 -3.09,0.98 -1.012,0.352 -2.07,0.699 -3.082,1.051 -1.019,0.352 -2.027,0.699 -3.051,1.09 -1.008,0.359 -2.027,0.75 -3.039,1.14 -1.019,0.391 -2.039,0.782 -3.051,1.211 -1.019,0.387 -1.988,0.821 -3.007,1.25 -0.981,0.43 -1.993,0.86 -2.969,1.289 -1.012,0.43 -1.992,0.891 -2.973,1.321 -1.008,0.469 -1.988,0.937 -2.969,1.41 -0.968,0.469 -1.949,0.937 -2.89,1.449 -0.969,0.469 -1.949,0.969 -2.93,1.481 -0.93,0.507 -1.91,1.019 -2.851,1.519 -0.969,0.512 -1.911,1.059 -2.848,1.57 -0.941,0.54 -1.871,1.09 -2.813,1.641 -0.937,0.539 -1.878,1.129 -2.808,1.68 -0.942,0.578 -1.84,1.129 -2.781,1.719 -0.899,0.582 -1.829,1.171 -2.731,1.75 -0.898,0.589 -1.797,1.21 -2.699,1.8 -0.899,0.629 -1.789,1.25 -2.688,1.879 -0.902,0.621 -1.761,1.25 -2.66,1.871 -0.859,0.629 -1.761,1.289 -2.621,1.95 -0.859,0.628 -1.711,1.289 -2.57,1.96 -0.86,0.661 -1.719,1.36 -2.578,2.032 -0.821,0.66 -1.684,1.359 -2.5,2.066 -0.821,0.703 -1.641,1.371 -2.461,2.113 -0.86,0.7 -1.68,1.399 -2.461,2.149 -0.82,0.699 -1.641,1.441 -2.43,2.18 -0.82,0.71 -1.601,1.449 -2.379,2.191 -0.781,0.738 -1.562,1.519 -2.34,2.269 -0.781,0.782 -1.562,1.52 -2.312,2.301 -0.777,0.778 -1.52,1.559 -2.258,2.348 -7.621,-7.969 -15.82,-15.32 -24.57,-21.957 -8.75,-6.641 -18.012,-12.582 -27.699,-17.692 -9.723,-5.121 -19.883,-9.421 -30.352,-12.82 -10.469,-3.359 -21.289,-5.781 -32.379,-7.18 -11.762,-2 -23.601,-2.742 -35.391,-2.39 -11.761,0.39 -23.441,1.879 -34.929,4.379 -3,0.66 -5.821,1.992 -8.821,2.769 z"
         style="fill:#ffffff;fill-opacity:1;fill-rule:evenodd;stroke:none"
         id="path36" /><path
         d="M 184.73,281.988 C 176.25,247.23 176.719,210.391 188.281,175.98 215.078,84.3398 314.059,22.3008 408.199,38.0898 c 95.59,12.0704 172.821,101.5192 170.86,197.8512 0.043,15.348 -2.34,30.539 -5.86,45.469 -0.469,-0.121 -0.969,-0.281 -1.437,-0.39 -1.063,-0.239 -2.114,-0.508 -3.172,-0.75 -1.051,-0.231 -2.11,-0.469 -3.16,-0.7 -1.09,-0.23 -2.149,-0.468 -3.2,-0.66 -1.058,-0.238 -2.152,-0.43 -3.21,-0.629 -1.051,-0.191 -2.141,-0.351 -3.2,-0.551 -1.09,-0.152 -2.148,-0.351 -3.242,-0.5 -1.058,-0.16 -2.109,-0.32 -3.199,-0.429 -1.098,-0.16 -2.149,-0.281 -3.25,-0.391 -1.051,-0.121 -2.149,-0.238 -3.238,-0.359 -1.051,-0.11 -2.153,-0.192 -3.243,-0.313 -1.097,-0.078 -2.148,-0.148 -3.238,-0.226 -1.101,-0.082 -2.148,-0.121 -3.25,-0.203 -1.09,-0.039 -2.18,-0.079 -3.238,-0.11 -1.094,-0.039 -2.192,-0.039 -3.281,-0.078 -1.09,0 -2.153,-0.043 -3.243,-0.043 -0.668,0 -1.328,0.043 -1.988,0.043 -1.058,0 -2.148,0.039 -3.25,0.039 -1.09,0.039 -2.14,0.07 -3.238,0.11 -1.094,0.039 -2.192,0.082 -3.242,0.16 -1.09,0.082 -2.192,0.16 -3.282,0.23 -1.058,0.078 -2.148,0.16 -3.199,0.281 -1.097,0.079 -2.187,0.188 -3.289,0.309 -1.051,0.121 -2.14,0.23 -3.238,0.391 -1.051,0.121 -2.152,0.269 -3.203,0.429 -1.09,0.16 -2.149,0.309 -3.239,0.469 -1.058,0.16 -2.109,0.352 -3.21,0.551 -1.051,0.148 -2.11,0.351 -3.2,0.582 -1.05,0.199 -2.109,0.387 -3.199,0.629 -1.062,0.23 -2.109,0.469 -3.172,0.699 -1.051,0.23 -2.109,0.469 -3.16,0.699 -1.059,0.281 -2.109,0.551 -3.168,0.821 -1.051,0.281 -2.101,0.55 -3.16,0.82 -1.012,0.32 -2.07,0.59 -3.121,0.898 -1.02,0.313 -2.07,0.633 -3.129,0.981 -1.012,0.312 -2.031,0.621 -3.09,0.98 -1.012,0.352 -2.07,0.699 -3.082,1.051 -1.019,0.352 -2.027,0.699 -3.051,1.09 -1.008,0.359 -2.027,0.75 -3.039,1.14 -1.019,0.391 -2.039,0.782 -3.051,1.211 -1.019,0.387 -1.988,0.821 -3.007,1.25 -0.981,0.43 -1.993,0.86 -2.969,1.289 -1.012,0.43 -1.992,0.891 -2.973,1.321 -1.008,0.469 -1.988,0.937 -2.969,1.41 -0.968,0.469 -1.949,0.937 -2.89,1.449 -0.969,0.469 -1.949,0.969 -2.93,1.481 -0.93,0.507 -1.91,1.019 -2.851,1.519 -0.969,0.512 -1.911,1.059 -2.848,1.57 -0.941,0.54 -1.871,1.09 -2.813,1.641 -0.937,0.539 -1.878,1.129 -2.808,1.68 -0.942,0.578 -1.84,1.129 -2.781,1.719 -0.899,0.582 -1.829,1.171 -2.731,1.75 -0.898,0.589 -1.797,1.21 -2.699,1.8 -0.899,0.629 -1.789,1.25 -2.688,1.879 -0.902,0.621 -1.761,1.25 -2.66,1.871 -0.859,0.629 -1.761,1.289 -2.621,1.95 -0.859,0.628 -1.711,1.289 -2.57,1.96 -0.86,0.661 -1.719,1.36 -2.578,2.032 -0.821,0.66 -1.684,1.359 -2.5,2.066 -0.821,0.703 -1.641,1.371 -2.461,2.113 -0.86,0.7 -1.68,1.399 -2.461,2.149 -0.82,0.699 -1.641,1.441 -2.43,2.18 -0.82,0.71 -1.601,1.449 -2.379,2.191 -0.781,0.738 -1.562,1.519 -2.34,2.269 -0.781,0.782 -1.562,1.52 -2.312,2.301 -0.777,0.778 -1.52,1.559 -2.258,2.348 -7.621,-7.969 -15.82,-15.32 -24.57,-21.957 -8.75,-6.641 -18.012,-12.582 -27.699,-17.692 -9.723,-5.121 -19.883,-9.421 -30.352,-12.82 -10.469,-3.359 -21.289,-5.781 -32.379,-7.18 -11.762,-2 -23.601,-2.742 -35.391,-2.39 -11.761,0.39 -23.441,1.879 -34.929,4.379 -3,0.66 -5.821,1.992 -8.821,2.769 z"
         style="fill:none;stroke:#000000;stroke-width:8.50395;stroke-linecap:butt;stroke-linejoin:miter;stroke-miterlimit:4;stroke-dasharray:none;stroke-opacity:1"
         id="path38" /><path
         d="m 184.73,281.988 c 3,-0.777 5.821,-2.109 8.821,-2.769 11.488,-2.5 23.168,-3.989 34.929,-4.379 11.79,-0.352 23.629,0.39 35.391,2.39 11.09,1.399 21.91,3.821 32.379,7.18 10.469,3.399 20.629,7.699 30.352,12.82 9.687,5.11 18.949,11.051 27.699,17.692 8.75,6.637 16.949,13.988 24.57,21.957 -0.781,0.781 -1.531,1.562 -2.23,2.383 -0.743,0.777 -1.481,1.558 -2.231,2.379 -0.699,0.82 -1.441,1.64 -2.14,2.461 -0.711,0.82 -1.411,1.636 -2.11,2.457 -0.711,0.82 -1.371,1.679 -2.07,2.543 -0.668,0.82 -1.371,1.679 -2.039,2.539 -0.66,0.859 -1.321,1.718 -1.992,2.578 -0.661,0.859 -1.289,1.722 -1.95,2.621 -0.629,0.859 -1.25,1.711 -1.879,2.609 -0.621,0.903 -1.25,1.801 -1.871,2.699 -0.629,0.864 -1.211,1.762 -1.839,2.692 -0.579,0.898 -1.168,1.801 -1.75,2.699 -0.59,0.941 -1.18,1.871 -1.719,2.77 -0.59,0.941 -1.141,1.882 -1.68,2.812 -0.551,0.899 -1.101,1.84 -1.641,2.82 -0.55,0.938 -1.101,1.868 -1.609,2.809 -0.5,0.98 -1.051,1.91 -1.562,2.891 -0.508,0.937 -0.969,1.91 -1.481,2.89 -0.508,0.938 -0.976,1.918 -1.449,2.891 -0.469,0.976 -0.93,1.957 -1.399,2.969 -0.468,0.98 -0.902,1.949 -1.371,2.929 -0.429,1.02 -0.859,1.989 -1.289,3.008 -0.429,0.973 -0.859,1.992 -1.25,3.012 -0.429,0.969 -0.82,1.988 -1.25,3 -0.39,1.019 -0.742,2.039 -1.129,3.051 -0.39,1.019 -0.742,2.031 -1.14,3.05 -0.352,1.047 -0.699,2.071 -1.051,3.079 -0.309,1.058 -0.66,2.07 -1.02,3.128 -0.308,1.012 -0.621,2.071 -0.929,3.082 -0.321,1.059 -0.629,2.11 -0.942,3.129 -0.269,1.051 -0.55,2.11 -0.82,3.161 -0.269,1.058 -0.551,2.109 -0.82,3.171 -0.16,0.7 -0.348,1.399 -0.508,2.149 -13.402,-3.481 -26.52,-7.93 -38.91,-14.461 C 236.328,389.57 198.59,338.59 184.73,281.988 Z"
         style="fill:#ffffff;fill-opacity:1;fill-rule:evenodd;stroke:none"
         id="path40" /><path
         d="m 184.73,281.988 c 3,-0.777 5.821,-2.109 8.821,-2.769 11.488,-2.5 23.168,-3.989 34.929,-4.379 11.79,-0.352 23.629,0.39 35.391,2.39 11.09,1.399 21.91,3.821 32.379,7.18 10.469,3.399 20.629,7.699 30.352,12.82 9.687,5.11 18.949,11.051 27.699,17.692 8.75,6.637 16.949,13.988 24.57,21.957 -0.781,0.781 -1.531,1.562 -2.23,2.383 -0.743,0.777 -1.481,1.558 -2.231,2.379 -0.699,0.82 -1.441,1.64 -2.14,2.461 -0.711,0.82 -1.411,1.636 -2.11,2.457 -0.711,0.82 -1.371,1.679 -2.07,2.543 -0.668,0.82 -1.371,1.679 -2.039,2.539 -0.66,0.859 -1.321,1.718 -1.992,2.578 -0.661,0.859 -1.289,1.722 -1.95,2.621 -0.629,0.859 -1.25,1.711 -1.879,2.609 -0.621,0.903 -1.25,1.801 -1.871,2.699 -0.629,0.864 -1.211,1.762 -1.839,2.692 -0.579,0.898 -1.168,1.801 -1.75,2.699 -0.59,0.941 -1.18,1.871 -1.719,2.77 -0.59,0.941 -1.141,1.882 -1.68,2.812 -0.551,0.899 -1.101,1.84 -1.641,2.82 -0.55,0.938 -1.101,1.868 -1.609,2.809 -0.5,0.98 -1.051,1.91 -1.562,2.891 -0.508,0.937 -0.969,1.91 -1.481,2.89 -0.508,0.938 -0.976,1.918 -1.449,2.891 -0.469,0.976 -0.93,1.957 -1.399,2.969 -0.468,0.98 -0.902,1.949 -1.371,2.929 -0.429,1.02 -0.859,1.989 -1.289,3.008 -0.429,0.973 -0.859,1.992 -1.25,3.012 -0.429,0.969 -0.82,1.988 -1.25,3 -0.39,1.019 -0.742,2.039 -1.129,3.051 -0.39,1.019 -0.742,2.031 -1.14,3.05 -0.352,1.047 -0.699,2.071 -1.051,3.079 -0.309,1.058 -0.66,2.07 -1.02,3.128 -0.308,1.012 -0.621,2.071 -0.929,3.082 -0.321,1.059 -0.629,2.11 -0.942,3.129 -0.269,1.051 -0.55,2.11 -0.82,3.161 -0.269,1.058 -0.551,2.109 -0.82,3.171 -0.16,0.7 -0.348,1.399 -0.508,2.149 -13.402,-3.481 -26.52,-7.93 -38.91,-14.461 C 236.328,389.57 198.59,338.59 184.73,281.988 Z"
         style="fill:none;stroke:#000000;stroke-width:8.50395;stroke-linecap:butt;stroke-linejoin:miter;stroke-miterlimit:4;stroke-dasharray:none;stroke-opacity:1"
         id="path42" /><path
         d="m 90.6211,535.66 v -5.308 c -1.9922,1.019 -3.9023,1.757 -5.7813,2.187 -1.789,0.512 -3.5507,0.781 -5.3085,0.781 -2.9297,0 -5.2305,-0.59 -6.8711,-1.718 -1.5704,-1.172 -2.3516,-2.774 -2.3516,-4.84 0,-1.801 0.5117,-3.133 1.5703,-4.063 1.1328,-0.937 3.1602,-1.679 6.0899,-2.187 l 3.2812,-0.633 c 4.0586,-0.859 7.0313,-2.258 8.9102,-4.219 1.9492,-1.871 2.9609,-4.449 2.9609,-7.648 0,-3.871 -1.3203,-6.84 -3.9023,-8.91 -2.6172,-1.993 -6.4102,-2.973 -11.4102,-2.973 -1.9883,0 -4.0586,0.242 -6.25,0.633 -2.1094,0.386 -4.2891,1.008 -6.5586,1.867 v 5.633 c 2.1914,-1.25 4.3008,-2.192 6.4102,-2.813 2.1796,-0.629 4.289,-0.937 6.3984,-0.937 3.0117,0 5.3516,0.617 7.0312,1.867 1.7618,1.25 2.6602,2.973 2.6602,5.16 0,1.949 -0.6211,3.481 -1.8789,4.531 -1.2422,1.129 -3.2422,2.032 -5.9297,2.66 l -3.2812,0.622 c -4.0704,0.82 -7.0313,2.07 -8.9102,3.75 -1.8008,1.757 -2.6602,4.136 -2.6602,7.187 0,3.512 1.25,6.289 3.75,8.281 2.5,2.071 5.9415,3.129 10.3204,3.129 1.8711,0 3.789,-0.16 5.7812,-0.469 1.9492,-0.32 3.9375,-0.859 5.9297,-1.57 z"
         style="fill:#000000;fill-opacity:1;fill-rule:nonzero;stroke:none"
         id="path44" /><path
         d="m 106.949,532.539 v -15 h 6.879 c 2.5,0 4.41,0.621 5.781,1.871 1.442,1.328 2.192,3.211 2.192,5.629 0,2.383 -0.75,4.223 -2.192,5.473 -1.371,1.328 -3.281,2.027 -5.781,2.027 z m -5.308,4.531 h 12.187 c 4.453,0 7.852,-1.05 10.152,-3.121 2.27,-2 3.442,-4.969 3.442,-8.91 0,-3.988 -1.172,-6.988 -3.442,-9.059 -2.3,-2 -5.699,-2.968 -10.152,-2.968 h -6.879 V 496.91 h -5.308 z"
         style="fill:#000000;fill-opacity:1;fill-rule:nonzero;stroke:none"
         id="path46" /><path
         d="m 134.801,537.07 h 25.32 v -4.691 h -20 v -11.867 h 19.059 v -4.532 h -19.059 v -14.531 h 20.469 v -4.539 h -25.789 z"
         style="fill:#000000;fill-opacity:1;fill-rule:nonzero;stroke:none"
         id="path48" /><path
         d="m 182.852,531.602 -7.34,-19.84 h 14.84 z m -2.973,5.468 h 6.101 l 15.309,-40.16 h -5.629 l -3.75,10.32 h -17.961 l -3.75,-10.32 h -5.629 z"
         style="fill:#000000;fill-opacity:1;fill-rule:nonzero;stroke:none"
         id="path50" /><path
         d="m 207.191,537.07 h 5.309 v -17.031 l 17.969,17.031 h 7.031 l -19.84,-18.75 21.25,-21.41 h -7.031 L 212.5,516.289 V 496.91 h -5.309 z"
         style="fill:#000000;fill-opacity:1;fill-rule:nonzero;stroke:none"
         id="path52" /><path
         d="m 243.238,537.07 h 25.313 v -4.691 h -20 v -11.867 h 19.07 v -4.532 h -19.07 v -14.531 h 20.469 v -4.539 h -25.782 z"
         style="fill:#000000;fill-opacity:1;fill-rule:nonzero;stroke:none"
         id="path54" /><path
         d="m 296.91,515.66 c 1.141,-0.308 2.27,-1.172 3.442,-2.5 1.128,-1.25 2.226,-3.039 3.277,-5.308 l 5.473,-10.942 h -5.782 l -5.16,10.32 c -1.25,2.692 -2.5,4.45 -3.75,5.309 -1.25,0.82 -2.961,1.25 -5.148,1.25 H 283.32 V 496.91 h -5.308 v 40.16 h 12.187 c 4.571,0 7.961,-1.019 10.153,-2.968 2.269,-1.872 3.437,-4.762 3.437,-8.59 0,-2.621 -0.59,-4.774 -1.719,-6.41 -1.172,-1.563 -2.89,-2.731 -5.16,-3.442 z m -13.59,16.879 V 518.32 h 6.879 c 2.571,0 4.571,0.551 5.93,1.719 1.332,1.25 2.031,3.051 2.031,5.473 0,2.258 -0.699,3.976 -2.031,5.148 -1.359,1.25 -3.359,1.879 -5.93,1.879 z"
         style="fill:#000000;fill-opacity:1;fill-rule:nonzero;stroke:none"
         id="path56" /><path
         d="m 118.871,458.32 h 5 v -30.1602 h -5 z m 0,11.559 h 5 v -6.25 h -5 z"
         style="fill:#000000;fill-opacity:1;fill-rule:nonzero;stroke:none"
         id="path58" /><path
         d="M 159.141,446.289 V 428.16 h -4.84 v 17.969 c 0,2.82 -0.59,4.922 -1.723,6.41 -1.168,1.441 -2.808,2.191 -5,2.191 -2.738,0 -4.848,-0.902 -6.406,-2.66 -1.481,-1.679 -2.192,-3.98 -2.192,-6.871 V 428.16 h -5 v 30.16 h 5 v -4.691 c 1.141,1.762 2.5,3.051 4.071,3.91 1.64,0.941 3.508,1.41 5.621,1.41 3.437,0 6.019,-1.097 7.808,-3.289 1.758,-2.109 2.661,-5.23 2.661,-9.371 z"
         style="fill:#000000;fill-opacity:1;fill-rule:nonzero;stroke:none"
         id="path60" /><path
         d="m 186.801,468.32 h 7.179 l 17.821,-33.59 v 33.59 h 5.308 v -40.16 h -7.339 l -17.821,33.602 V 428.16 h -5.148 z"
         style="fill:#000000;fill-opacity:1;fill-rule:nonzero;stroke:none"
         id="path62" /><path
         d="m 222.301,468.32 h 5.937 l 11.102,-16.558 10.93,16.558 h 5.941 l -14.223,-21.09 v -19.07 h -5.468 v 19.07 z"
         style="fill:#000000;fill-opacity:1;fill-rule:nonzero;stroke:none"
         id="path64" /><path
         d="m 462.148,550.078 h 5.313 V 533.52 h 19.687 v 16.558 h 5.473 v -40.156 h -5.473 v 19.058 h -19.687 v -19.058 h -5.313 z"
         style="fill:#000000;fill-opacity:1;fill-rule:nonzero;stroke:none"
         id="path66" /><path
         d="m 503.52,550.078 h 25.308 v -4.687 h -20 V 533.52 h 19.063 v -4.54 h -19.063 v -14.531 h 20.473 v -4.527 H 503.52 Z"
         style="fill:#000000;fill-opacity:1;fill-rule:nonzero;stroke:none"
         id="path68" /><path
         d="m 551.559,544.609 -7.34,-19.839 h 14.84 z m -2.969,5.469 h 6.101 L 570,509.922 h -5.621 l -3.758,10.308 H 542.66 l -3.75,-10.308 h -5.629 z"
         style="fill:#000000;fill-opacity:1;fill-rule:nonzero;stroke:none"
         id="path70" /><path
         d="m 594.801,528.672 c 1.14,-0.313 2.269,-1.172 3.437,-2.5 1.141,-1.25 2.231,-3.051 3.282,-5.313 l 5.468,-10.937 h -5.777 l -5.16,10.308 c -1.25,2.7 -2.5,4.461 -3.75,5.321 -1.25,0.82 -2.961,1.25 -5.153,1.25 h -5.937 v -16.879 h -5.313 v 40.156 h 12.192 c 4.57,0 7.961,-1.019 10.148,-2.969 2.274,-1.879 3.442,-4.769 3.442,-8.589 0,-2.622 -0.59,-4.77 -1.719,-6.411 -1.172,-1.558 -2.891,-2.73 -5.16,-3.437 z m -13.59,16.879 v -14.223 h 6.879 c 2.57,0 4.57,0.551 5.93,1.723 1.332,1.25 2.031,3.039 2.031,5.469 0,2.261 -0.699,3.98 -2.031,5.152 -1.36,1.25 -3.36,1.879 -5.93,1.879 z"
         style="fill:#000000;fill-opacity:1;fill-rule:nonzero;stroke:none"
         id="path72" /><path
         d="m 614.102,550.078 h 25.308 v -4.687 h -20 V 533.52 h 19.07 v -4.54 h -19.07 v -14.531 h 20.469 v -4.527 h -25.777 z"
         style="fill:#000000;fill-opacity:1;fill-rule:nonzero;stroke:none"
         id="path74" /><path
         d="m 667.77,528.672 c 1.14,-0.313 2.269,-1.172 3.441,-2.5 1.129,-1.25 2.23,-3.051 3.277,-5.313 l 5.473,-10.937 h -5.781 l -5.16,10.308 c -1.25,2.7 -2.5,4.461 -3.75,5.321 -1.25,0.82 -2.969,1.25 -5.149,1.25 h -5.941 v -16.879 h -5.309 v 40.156 h 12.18 c 4.57,0 7.969,-1.019 10.16,-2.969 2.269,-1.879 3.437,-4.769 3.437,-8.589 0,-2.622 -0.589,-4.77 -1.718,-6.411 -1.168,-1.558 -2.891,-2.73 -5.16,-3.437 z m -13.59,16.879 v -14.223 h 6.871 c 2.578,0 4.57,0.551 5.937,1.723 1.332,1.25 2.032,3.039 2.032,5.469 0,2.261 -0.7,3.98 -2.032,5.152 -1.367,1.25 -3.359,1.879 -5.937,1.879 z"
         style="fill:#000000;fill-opacity:1;fill-rule:nonzero;stroke:none"
         id="path76" /><path
         d="m 479.34,471.328 h 5 v -30.1563 h -5 z m 0,11.563 h 5 v -6.25 h -5 z"
         style="fill:#000000;fill-opacity:1;fill-rule:nonzero;stroke:none"
         id="path78" /><path
         d="m 519.609,459.301 v -18.129 h -4.839 v 17.969 c 0,2.808 -0.59,4.918 -1.719,6.41 -1.172,1.437 -2.821,2.179 -5,2.179 -2.742,0 -4.852,-0.89 -6.41,-2.652 -1.481,-1.68 -2.192,-3.988 -2.192,-6.879 v -17.027 h -5 v 30.156 h 5 v -4.687 c 1.141,1.757 2.5,3.05 4.071,3.91 1.64,0.929 3.511,1.398 5.621,1.398 3.437,0 6.019,-1.09 7.808,-3.277 1.762,-2.113 2.66,-5.231 2.66,-9.371 z"
         style="fill:#000000;fill-opacity:1;fill-rule:nonzero;stroke:none"
         id="path80" /><path
         d="m 547.27,481.328 h 7.179 L 572.27,447.73 v 33.598 h 5.308 v -40.156 h -7.348 l -17.808,33.598 v -33.598 h -5.152 z"
         style="fill:#000000;fill-opacity:1;fill-rule:nonzero;stroke:none"
         id="path82" /><path
         d="m 582.77,481.328 h 5.941 l 11.09,-16.558 10.937,16.558 h 5.942 L 602.461,460.23 v -19.058 h -5.473 v 19.058 z"
         style="fill:#000000;fill-opacity:1;fill-rule:nonzero;stroke:none"
         id="path84" /><path
         d="m 304.059,248.949 c -3.981,0 -7.149,-1.488 -9.528,-4.379 -2.301,-2.929 -3.441,-6.949 -3.441,-12.031 0,-5 1.14,-9.019 3.441,-12.027 2.379,-2.934 5.547,-4.383 9.528,-4.383 3.953,0 7.07,1.449 9.382,4.383 2.258,3.008 3.438,7.027 3.438,12.027 0,5.082 -1.18,9.102 -3.438,12.031 -2.312,2.891 -5.429,4.379 -9.382,4.379 z m 0,4.371 c 5.632,0 10.082,-1.871 13.441,-5.621 3.32,-3.75 5,-8.828 5,-15.16 0,-6.367 -1.68,-11.41 -5,-15.16 -3.359,-3.75 -7.809,-5.617 -13.441,-5.617 -5.618,0 -10.149,1.867 -13.59,5.617 -3.36,3.75 -5,8.793 -5,15.16 0,6.332 1.64,11.41 5,15.16 3.441,3.75 7.972,5.621 13.59,5.621 z"
         style="fill:#000000;fill-opacity:1;fill-rule:nonzero;stroke:none"
         id="path86" /><path
         d="m 325.469,252.699 h 33.91 v -4.687 H 345.16 v -35.473 h -5.469 v 35.473 h -14.222 z"
         style="fill:#000000;fill-opacity:1;fill-rule:nonzero;stroke:none"
         id="path88" /><path
         d="M 364.691,252.699 H 370 v -16.57 h 19.691 v 16.57 h 5.469 v -40.16 h -5.469 v 19.063 H 370 v -19.063 h -5.309 z"
         style="fill:#000000;fill-opacity:1;fill-rule:nonzero;stroke:none"
         id="path90" /><path
         d="m 406.051,252.699 h 25.32 v -4.687 h -20 v -11.883 h 19.059 v -4.527 H 411.371 V 217.07 h 20.469 v -4.531 h -25.789 z"
         style="fill:#000000;fill-opacity:1;fill-rule:nonzero;stroke:none"
         id="path92" /><path
         d="m 459.691,231.289 c 1.129,-0.309 2.258,-1.168 3.43,-2.5 1.141,-1.25 2.231,-3.051 3.289,-5.309 l 5.469,-10.941 h -5.789 l -5.149,10.313 c -1.25,2.699 -2.5,4.449 -3.75,5.308 -1.25,0.82 -2.972,1.25 -5.16,1.25 h -5.941 v -16.871 h -5.309 v 40.16 h 12.188 c 4.57,0 7.972,-1.019 10.152,-2.969 2.27,-1.878 3.438,-4.769 3.438,-8.601 0,-2.609 -0.579,-4.758 -1.719,-6.399 -1.168,-1.57 -2.891,-2.742 -5.149,-3.441 z M 446.09,248.16 v -14.211 h 6.879 c 2.582,0 4.57,0.539 5.941,1.711 1.32,1.25 2.031,3.051 2.031,5.469 0,2.269 -0.711,3.992 -2.031,5.16 -1.371,1.25 -3.359,1.871 -5.941,1.871 z"
         style="fill:#000000;fill-opacity:1;fill-rule:nonzero;stroke:none"
         id="path94" /><path
         d="m 304.961,173.949 h 5 v -30.1602 h -5 z m 0,11.563 h 5 v -6.25 h -5 z"
         style="fill:#000000;fill-opacity:1;fill-rule:nonzero;stroke:none"
         id="path96" /><path
         d="m 345.23,161.91 v -18.121 h -4.839 v 17.973 c 0,2.808 -0.59,4.918 -1.719,6.398 -1.172,1.449 -2.813,2.192 -5,2.192 -2.731,0 -4.844,-0.903 -6.402,-2.653 -1.489,-1.679 -2.192,-3.988 -2.192,-6.879 v -17.031 h -5 v 30.16 h 5 v -4.687 c 1.133,1.758 2.5,3.039 4.063,3.898 1.64,0.942 3.519,1.41 5.629,1.41 3.429,0 6.011,-1.09 7.808,-3.281 1.762,-2.109 2.652,-5.238 2.652,-9.379 z"
         style="fill:#000000;fill-opacity:1;fill-rule:nonzero;stroke:none"
         id="path98" /><path
         d="m 372.891,183.949 h 7.187 l 17.813,-33.597 v 33.597 h 5.308 v -40.16 h -7.34 l -17.808,33.59 v -33.59 h -5.16 z"
         style="fill:#000000;fill-opacity:1;fill-rule:nonzero;stroke:none"
         id="path100" /><path
         d="m 408.441,183.949 h 5.938 l 11.09,-16.57 10.941,16.57 h 5.93 l -14.219,-21.097 v -19.063 h -5.461 v 19.063 z"
         style="fill:#000000;fill-opacity:1;fill-rule:nonzero;stroke:none"
         id="path102" /></g></g></svg>
