<?xml version="1.0" encoding="UTF-8"?><svg xmlns="http://www.w3.org/2000/svg" xmlns:xlink="http://www.w3.org/1999/xlink" fill-opacity="1" color-rendering="auto" color-interpolation="auto" text-rendering="auto" stroke="black" stroke-linecap="square" width="373" stroke-miterlimit="10" shape-rendering="auto" stroke-opacity="1" fill="black" stroke-dasharray="none" font-weight="normal" stroke-width="1" height="135" font-family="'Dialog'" font-style="normal" stroke-linejoin="miter" font-size="12px" stroke-dashoffset="0" image-rendering="auto">
  <!--Generated by ySVG 2.5-->
  <defs id="genericDefs"/>
  <g>
    <defs id="defs1">
      <clipPath clipPathUnits="userSpaceOnUse" id="clipPath1">
        <path d="M0 0 L373 0 L373 135 L0 135 L0 0 Z"/>
      </clipPath>
      <clipPath clipPathUnits="userSpaceOnUse" id="clipPath2">
        <path d="M-81 -184 L292 -184 L292 -49 L-81 -49 L-81 -184 Z"/>
      </clipPath>
    </defs>
    <g fill="white" text-rendering="geometricPrecision" shape-rendering="geometricPrecision" transform="translate(81,184)" stroke="white">
      <rect x="-81" width="373" height="135" y="-184" clip-path="url(#clipPath2)" stroke="none"/>
    </g>
    <g fill="rgb(255,204,0)" text-rendering="geometricPrecision" shape-rendering="geometricPrecision" transform="matrix(1,0,0,1,81,184)" stroke="rgb(255,204,0)">
      <rect x="0" width="30" height="30" y="-100" clip-path="url(#clipPath2)" stroke="none"/>
    </g>
    <g text-rendering="geometricPrecision" stroke-miterlimit="1.45" shape-rendering="geometricPrecision" font-family="sans-serif" transform="matrix(1,0,0,1,81,184)" stroke-linecap="butt">
      <text x="9.1992" xml:space="preserve" y="-80.4648" clip-path="url(#clipPath2)" stroke="none">(:)</text>
      <rect fill="none" x="0" width="30" height="30" y="-100" clip-path="url(#clipPath2)"/>
    </g>
    <g fill="rgb(255,204,0)" text-rendering="geometricPrecision" shape-rendering="geometricPrecision" transform="matrix(1,0,0,1,81,184)" stroke="rgb(255,204,0)">
      <rect x="82.0527" width="30" height="30" y="-100" clip-path="url(#clipPath2)" stroke="none"/>
    </g>
    <g text-rendering="geometricPrecision" stroke-miterlimit="1.45" shape-rendering="geometricPrecision" font-family="sans-serif" transform="matrix(1,0,0,1,81,184)" stroke-linecap="butt">
      <text x="91.252" xml:space="preserve" y="-80.4648" clip-path="url(#clipPath2)" stroke="none">(:)</text>
      <rect fill="none" x="82.0527" width="30" height="30" y="-100" clip-path="url(#clipPath2)"/>
    </g>
    <g fill="rgb(255,204,0)" text-rendering="geometricPrecision" shape-rendering="geometricPrecision" transform="matrix(1,0,0,1,81,184)" stroke="rgb(255,204,0)">
      <rect x="164.1055" width="30" height="30" y="-100" clip-path="url(#clipPath2)" stroke="none"/>
    </g>
    <g text-rendering="geometricPrecision" stroke-miterlimit="1.45" shape-rendering="geometricPrecision" font-family="sans-serif" transform="matrix(1,0,0,1,81,184)" stroke-linecap="butt">
      <text x="173.3047" xml:space="preserve" y="-80.4648" clip-path="url(#clipPath2)" stroke="none">(:)</text>
      <rect fill="none" x="164.1055" width="30" height="30" y="-100" clip-path="url(#clipPath2)"/>
    </g>
    <g fill="rgb(255,204,0)" text-rendering="geometricPrecision" shape-rendering="geometricPrecision" transform="matrix(1,0,0,1,81,184)" stroke="rgb(255,204,0)">
      <rect x="246.1582" width="30" height="30" y="-100" clip-path="url(#clipPath2)" stroke="none"/>
    </g>
    <g text-rendering="geometricPrecision" stroke-miterlimit="1.45" shape-rendering="geometricPrecision" font-family="sans-serif" transform="matrix(1,0,0,1,81,184)" stroke-linecap="butt">
      <text x="257.2559" xml:space="preserve" y="-80.4648" clip-path="url(#clipPath2)" stroke="none">[]</text>
      <rect fill="none" x="246.1582" width="30" height="30" y="-100" clip-path="url(#clipPath2)"/>
    </g>
    <g fill="rgb(255,204,0)" text-rendering="geometricPrecision" shape-rendering="geometricPrecision" transform="matrix(1,0,0,1,81,184)" stroke="rgb(255,204,0)">
      <circle r="15" clip-path="url(#clipPath2)" cx="15" cy="-154" stroke="none"/>
    </g>
    <g text-rendering="geometricPrecision" stroke-miterlimit="1.45" shape-rendering="geometricPrecision" font-family="sans-serif" transform="matrix(1,0,0,1,81,184)" stroke-linecap="butt">
      <text x="11.2061" xml:space="preserve" y="-149.4648" clip-path="url(#clipPath2)" stroke="none">1</text>
      <circle fill="none" r="15" clip-path="url(#clipPath2)" cx="15" cy="-154"/>
    </g>
    <g fill="rgb(255,204,0)" text-rendering="geometricPrecision" shape-rendering="geometricPrecision" transform="matrix(1,0,0,1,81,184)" stroke="rgb(255,204,0)">
      <circle r="15" clip-path="url(#clipPath2)" cx="97.0527" cy="-154" stroke="none"/>
    </g>
    <g text-rendering="geometricPrecision" stroke-miterlimit="1.45" shape-rendering="geometricPrecision" font-family="sans-serif" transform="matrix(1,0,0,1,81,184)" stroke-linecap="butt">
      <text x="93.2588" xml:space="preserve" y="-149.4648" clip-path="url(#clipPath2)" stroke="none">2</text>
      <circle fill="none" r="15" clip-path="url(#clipPath2)" cx="97.0527" cy="-154"/>
    </g>
    <g fill="rgb(255,204,0)" text-rendering="geometricPrecision" shape-rendering="geometricPrecision" transform="matrix(1,0,0,1,81,184)" stroke="rgb(255,204,0)">
      <circle r="15" clip-path="url(#clipPath2)" cx="179.1055" cy="-154" stroke="none"/>
    </g>
    <g text-rendering="geometricPrecision" stroke-miterlimit="1.45" shape-rendering="geometricPrecision" font-family="sans-serif" transform="matrix(1,0,0,1,81,184)" stroke-linecap="butt">
      <text x="175.3115" xml:space="preserve" y="-149.4648" clip-path="url(#clipPath2)" stroke="none">3</text>
      <circle fill="none" r="15" clip-path="url(#clipPath2)" cx="179.1055" cy="-154"/>
    </g>
    <g fill="rgb(255,204,0)" text-rendering="geometricPrecision" shape-rendering="geometricPrecision" transform="matrix(1,0,0,1,81,184)" stroke="rgb(255,204,0)">
      <rect x="-65.5" y="-100" clip-path="url(#clipPath2)" width="30" rx="4" ry="4" height="30" stroke="none"/>
    </g>
    <g text-rendering="geometricPrecision" stroke-miterlimit="1.45" shape-rendering="geometricPrecision" font-family="sans-serif" transform="matrix(1,0,0,1,81,184)" stroke-linecap="butt">
      <text x="-57.2383" xml:space="preserve" y="-80.4648" clip-path="url(#clipPath2)" stroke="none">xs</text>
      <rect x="-65.5" y="-100" clip-path="url(#clipPath2)" fill="none" width="30" rx="4" ry="4" height="30"/>
      <path fill="none" d="M30 -85 L74.0273 -85" clip-path="url(#clipPath2)"/>
      <path d="M82.0273 -85 L70.0273 -90 L73.0273 -85 L70.0273 -80 Z" clip-path="url(#clipPath2)" stroke="none"/>
      <text x="47" xml:space="preserve" y="-69.3984" clip-path="url(#clipPath2)" stroke="none">tail</text>
      <path fill="none" d="M112.0527 -85 L156.08 -85" clip-path="url(#clipPath2)"/>
      <path d="M164.08 -85 L152.08 -90 L155.08 -85 L152.08 -80 Z" clip-path="url(#clipPath2)" stroke="none"/>
      <text x="129.0527" xml:space="preserve" y="-69.3984" clip-path="url(#clipPath2)" stroke="none">tail</text>
      <path fill="none" d="M194.1055 -85 L238.1328 -85" clip-path="url(#clipPath2)"/>
      <path d="M246.1328 -85 L234.1328 -90 L237.1328 -85 L234.1328 -80 Z" clip-path="url(#clipPath2)" stroke="none"/>
      <text x="211.1055" xml:space="preserve" y="-69.3984" clip-path="url(#clipPath2)" stroke="none">tail</text>
      <path fill="none" d="M15 -100 L15 -131" clip-path="url(#clipPath2)"/>
      <path d="M15 -139 L10 -127 L15 -130 L20 -127 Z" clip-path="url(#clipPath2)" stroke="none"/>
      <text x="30.8438" xml:space="preserve" y="-114.9648" clip-path="url(#clipPath2)" stroke="none">head</text>
      <path fill="none" d="M97.0527 -100 L97.0527 -131" clip-path="url(#clipPath2)"/>
      <path d="M97.0527 -139 L92.0527 -127 L97.0527 -130 L102.0527 -127 Z" clip-path="url(#clipPath2)" stroke="none"/>
      <text x="112.8965" xml:space="preserve" y="-114.9648" clip-path="url(#clipPath2)" stroke="none">head</text>
      <path fill="none" d="M179.1055 -100 L179.1055 -131" clip-path="url(#clipPath2)"/>
      <path d="M179.1055 -139 L174.1055 -127 L179.1055 -130 L184.1055 -127 Z" clip-path="url(#clipPath2)" stroke="none"/>
      <text x="194.9492" xml:space="preserve" y="-114.9648" clip-path="url(#clipPath2)" stroke="none">head</text>
      <path fill="none" d="M-35.5002 -85 L-8 -85" clip-path="url(#clipPath2)"/>
      <path d="M0 -85 L-12 -90 L-9 -85 L-12 -80 Z" clip-path="url(#clipPath2)" stroke="none"/>
    </g>
  </g>
</svg>
