<?xml version="1.0" encoding="UTF-8" standalone="no"?>
<svg
   xmlns:dc="http://purl.org/dc/elements/1.1/"
   xmlns:cc="http://creativecommons.org/ns#"
   xmlns:rdf="http://www.w3.org/1999/02/22-rdf-syntax-ns#"
   xmlns:svg="http://www.w3.org/2000/svg"
   xmlns="http://www.w3.org/2000/svg"
   version="1.1"
   id="svg2"
   xml:space="preserve"
   width="305.33334"
   height="305.33334"
   viewBox="0 0 305.33334 305.33334"><metadata
     id="metadata8"><rdf:RDF><cc:Work
         rdf:about=""><dc:format>image/svg+xml</dc:format><dc:type
           rdf:resource="http://purl.org/dc/dcmitype/StillImage" /></cc:Work></rdf:RDF></metadata><defs
     id="defs6" /><g
     id="g10"
     transform="matrix(1.3333333,0,0,-1.3333333,0,305.33333)"><g
       id="g12"
       transform="scale(0.1)"><path
         d="m 1708.52,1148.44 c 0,-313.131 -253.83,-566.96 -566.96,-566.96 -313.08,0 -566.912,253.829 -566.912,566.96 0,313.08 253.832,566.91 566.912,566.91 313.13,0 566.96,-253.83 566.96,-566.91 z"
         style="fill:none;stroke:#000000;stroke-width:8.50394;stroke-linecap:butt;stroke-linejoin:miter;stroke-miterlimit:4;stroke-dasharray:none;stroke-opacity:1"
         id="path14" /><path
         d="M 2275.43,1148.44 C 2275.43,522.23 1767.77,14.5703 1141.56,14.5703 515.352,14.5703 7.73047,522.23 7.73047,1148.44 c 0,626.21 507.62153,1133.83 1133.82953,1133.83 626.21,0 1133.87,-507.62 1133.87,-1133.83 z"
         style="fill:none;stroke:#000000;stroke-width:8.50394;stroke-linecap:butt;stroke-linejoin:miter;stroke-miterlimit:4;stroke-dasharray:none;stroke-opacity:1"
         id="path16" /><g
         id="g18"
         transform="scale(10)"><text
           transform="matrix(1,0,0,-1,99.1242,111.606)"
           style="font-variant:normal;font-size:20px;font-family:f-0;-inkscape-font-specification:f-0-0;writing-mode:lr-tb;fill:#000000;fill-opacity:1;fill-rule:nonzero;stroke:none"
           id="text22"><tspan
             x="0 14.2"
             y="0"
             id="tspan20">GO</tspan></text></g><path
         d="m 1131.99,1352.15 3.48,595.47"
         style="fill:none;stroke:#000000;stroke-width:7.49999;stroke-linecap:butt;stroke-linejoin:miter;stroke-miterlimit:4;stroke-dasharray:none;stroke-opacity:1"
         id="path24" /><path
         d="m 1135.04,1872.62 29.8,-30.2 -29.37,105.2 -30.63,-104.85 z"
         style="fill:#000000;fill-opacity:1;fill-rule:evenodd;stroke:none"
         id="path26" /><path
         d="m 1135.04,1872.62 29.8,-30.19 -29.37,105.19 -30.63,-104.84 z"
         style="fill:none;stroke:#000000;stroke-width:7.99999;stroke-linecap:butt;stroke-linejoin:miter;stroke-miterlimit:4;stroke-dasharray:none;stroke-opacity:1"
         id="path28" /><path
         d="M 1133.28,969.922 1129.8,374.449"
         style="fill:none;stroke:#000000;stroke-width:7.49999;stroke-linecap:butt;stroke-linejoin:miter;stroke-miterlimit:4;stroke-dasharray:none;stroke-opacity:1"
         id="path30" /><path
         d="m 1130.23,449.449 -29.8,30.16 29.37,-105.16 30.63,104.813 z"
         style="fill:#000000;fill-opacity:1;fill-rule:evenodd;stroke:none"
         id="path32" /><path
         d="m 1130.23,449.449 -29.8,30.156 29.37,-105.156 30.63,104.805 z"
         style="fill:none;stroke:#000000;stroke-width:7.99999;stroke-linecap:butt;stroke-linejoin:miter;stroke-miterlimit:4;stroke-dasharray:none;stroke-opacity:1"
         id="path34" /><path
         d="m 925.59,1184.3 -595.469,3.47"
         style="fill:none;stroke:#000000;stroke-width:7.49999;stroke-linecap:butt;stroke-linejoin:miter;stroke-miterlimit:4;stroke-dasharray:none;stroke-opacity:1"
         id="path36" /><path
         d="m 405.121,1187.34 30.188,29.85 -105.188,-29.42 104.84,-30.58 z"
         style="fill:#000000;fill-opacity:1;fill-rule:evenodd;stroke:none"
         id="path38" /><path
         d="m 405.117,1187.34 30.196,29.85 -105.196,-29.42 104.844,-30.58 z"
         style="fill:none;stroke:#000000;stroke-width:7.99999;stroke-linecap:butt;stroke-linejoin:miter;stroke-miterlimit:4;stroke-dasharray:none;stroke-opacity:1"
         id="path40" /><path
         d="m 1329.1,1174.84 595.47,-3.47"
         style="fill:none;stroke:#000000;stroke-width:7.49999;stroke-linecap:butt;stroke-linejoin:miter;stroke-miterlimit:4;stroke-dasharray:none;stroke-opacity:1"
         id="path42" /><path
         d="m 1849.57,1171.8 -30.16,-29.81 105.16,29.38 -104.8,30.58 z"
         style="fill:#000000;fill-opacity:1;fill-rule:evenodd;stroke:none"
         id="path44" /><path
         d="m 1849.57,1171.79 -30.16,-29.8 105.16,29.38 -104.81,30.58 z"
         style="fill:none;stroke:#000000;stroke-width:7.99999;stroke-linecap:butt;stroke-linejoin:miter;stroke-miterlimit:4;stroke-dasharray:none;stroke-opacity:1"
         id="path46" /></g></g></svg>
